<svg width="330" height="56" viewBox="0 0 330 56" fill="none" xmlns="http://www.w3.org/2000/svg">
<path fill-rule="evenodd" clip-rule="evenodd" d="M3.6477 42.3485C1.16405 38.136 6.86854 34.8098 9.88753 39.4524C15.9957 48.8604 29.8883 48.9394 36.1106 39.6016C38.3222 36.293 33.1882 32.4227 30.4325 36.2315C26.0883 42.2432 16.7329 40.5318 14.4423 34.0024C13.7754 32.1068 13.7666 29.8776 14.3897 27.9644C16.5662 21.2946 26.0532 19.5218 30.4325 25.5773C33.1882 29.4037 38.3222 25.5334 36.1106 22.2073C29.8883 12.8695 16.0045 12.9485 9.88753 22.3565C6.86854 26.9991 1.16405 23.6729 3.6477 19.4604C15.162 -0.0489883 45.5625 7.89341 45.5625 30.8869C45.5625 53.8803 15.162 61.8491 3.6477 42.3485Z" fill="url(#paint0_linear_6341_62611)"/>
<path d="M74.393 43.9971C72.4811 45.5448 70.0686 46.2731 67.1553 46.2731C64.8338 46.2731 62.7854 45.8179 61.0556 44.8165C59.2803 43.815 57.9147 42.4039 56.9588 40.5831C56.0029 38.7623 55.5477 36.6684 55.5477 34.3014C55.5477 31.9343 56.0029 29.8859 57.0043 28.0651C57.9602 26.2898 59.3258 24.9242 61.1011 23.9228C62.8764 22.9213 64.9248 22.4206 67.2918 22.4206C70.2051 22.4206 72.5722 23.1945 74.4385 24.7421C76.2593 26.2898 77.4428 28.3382 77.898 30.9784H72.8453C72.4811 29.6583 71.8439 28.6113 70.8424 27.792C69.841 27.0181 68.6119 26.6085 67.1553 26.6085C65.1524 26.6085 63.5592 27.3368 62.3757 28.7479C61.1922 30.2046 60.6004 32.0254 60.6004 34.3014C60.6004 36.6229 61.1922 38.4892 62.3757 39.9458C63.5592 41.4025 65.1524 42.0853 67.1553 42.0853C68.6574 42.0853 69.932 41.7211 70.9335 40.9018C71.9349 40.0824 72.5722 38.9899 72.8908 37.6243H77.898C77.4428 40.3555 76.2593 42.4494 74.393 43.9971ZM81.9543 22.6937L88.4636 40.6742L94.7909 22.6937H100.026L89.4651 49.6416C88.9188 51.0527 88.4181 52.1452 87.9629 52.8735C87.5077 53.6018 86.916 54.1936 86.2787 54.5578C85.5959 54.9219 84.6855 55.104 83.593 55.104H78.3127V50.7796H81.7722C82.6826 50.7796 83.3654 50.643 83.7296 50.3699C84.0937 50.0968 84.4579 49.414 84.8676 48.4126L85.8235 46.1821L76.7195 22.6937H81.9543ZM118.854 23.8773C120.493 24.8332 121.813 26.1988 122.769 28.0196C123.679 29.8404 124.18 31.9343 124.18 34.3469C124.18 36.7139 123.679 38.8078 122.769 40.6286C121.813 42.4494 120.493 43.815 118.854 44.8165C117.17 45.8179 115.258 46.2731 113.164 46.2731C111.434 46.2731 109.932 45.9545 108.657 45.3172C107.383 44.6799 106.336 43.815 105.608 42.7226V55.104H100.691V22.6937H104.97L105.562 26.1533C107.428 23.6952 109.978 22.4206 113.164 22.4206C115.258 22.4206 117.17 22.9213 118.854 23.8773ZM117.261 39.9458C118.535 38.4892 119.173 36.6229 119.173 34.3469C119.173 32.0709 118.535 30.2046 117.261 28.7479C115.986 27.3368 114.347 26.6085 112.345 26.6085C110.296 26.6085 108.657 27.3368 107.428 28.7479C106.154 30.159 105.562 31.9798 105.562 34.2558C105.562 36.6229 106.154 38.4892 107.428 39.9458C108.657 41.4025 110.296 42.1308 112.345 42.1308C114.347 42.1308 115.986 41.4025 117.261 39.9458ZM139.18 22.6937V27.2913H136.995C134.947 27.2913 133.49 27.9741 132.58 29.2941C131.67 30.6142 131.214 32.2985 131.214 34.3014V46H126.298V22.6937H130.668L131.214 26.1988C131.852 25.1063 132.717 24.2869 133.809 23.6497C134.856 23.0124 136.267 22.6937 138.088 22.6937H139.18ZM139.915 28.1106C140.871 26.2898 142.191 24.9242 143.921 23.9228C145.651 22.9213 147.608 22.4206 149.839 22.4206C152.069 22.4206 154.027 22.8758 155.756 23.7862C157.486 24.6966 158.806 26.0167 159.808 27.6554C160.809 29.3397 161.31 31.297 161.355 33.5275C161.355 34.1648 161.31 34.7566 161.219 35.3938H143.648V35.667C143.739 37.7154 144.376 39.3086 145.56 40.4921C146.698 41.6756 148.246 42.2674 150.158 42.2674C151.66 42.2674 152.934 41.9487 153.981 41.2204C154.983 40.4921 155.665 39.4906 156.03 38.1706H160.946C160.491 40.5376 159.353 42.495 157.486 43.9971C155.62 45.5448 153.298 46.2731 150.522 46.2731C148.064 46.2731 145.97 45.8179 144.149 44.8165C142.328 43.815 140.962 42.4494 139.961 40.6286C138.96 38.8534 138.504 36.7594 138.504 34.3924C138.504 32.0254 138.96 29.9314 139.915 28.1106ZM156.348 31.7978C156.121 30.1135 155.438 28.7934 154.3 27.8375C153.162 26.8816 151.751 26.3809 150.021 26.3809C148.382 26.3809 147.017 26.8816 145.833 27.883C144.65 28.8845 144.012 30.159 143.83 31.7978H156.348ZM167.29 38.3071C167.381 39.5362 167.928 40.5376 168.975 41.3114C170.022 42.0853 171.387 42.4494 173.072 42.4494C174.528 42.4494 175.757 42.1763 176.668 41.6301C177.578 41.0838 178.079 40.31 178.079 39.3541C178.079 38.5802 177.851 37.9885 177.441 37.5788C176.986 37.2146 176.44 36.9415 175.712 36.7594C174.983 36.5774 173.891 36.3953 172.434 36.2132C170.386 35.9856 168.702 35.667 167.381 35.2573C166.061 34.8476 165.014 34.2103 164.195 33.2999C163.376 32.3895 163.012 31.206 163.012 29.6583C163.012 28.2472 163.376 26.9726 164.195 25.8801C165.014 24.7877 166.107 23.9228 167.518 23.2855C168.929 22.6937 170.522 22.3751 172.343 22.3751C175.256 22.3751 177.669 23.0579 179.49 24.3325C181.311 25.6525 182.312 27.4733 182.494 29.8404H177.715C177.578 28.7934 177.032 27.9285 176.121 27.2457C175.165 26.5629 173.982 26.1988 172.571 26.1988C171.114 26.1988 169.976 26.4719 169.111 27.0181C168.201 27.5644 167.791 28.3382 167.791 29.2486C167.791 29.9769 167.973 30.4777 168.428 30.8418C168.884 31.206 169.43 31.4336 170.113 31.5702C170.75 31.7067 171.842 31.8433 173.345 32.0254C175.348 32.253 177.032 32.5716 178.397 33.0268C179.763 33.482 180.855 34.1648 181.675 35.1207C182.494 36.0766 182.904 37.3512 182.904 38.9899C182.904 40.4466 182.449 41.7666 181.629 42.8591C180.764 43.9516 179.581 44.8165 178.124 45.4082C176.622 46 174.938 46.2731 173.117 46.2731C169.976 46.2731 167.427 45.5903 165.515 44.1792C163.603 42.7681 162.602 40.8107 162.556 38.3071H167.29ZM188.541 38.3071C188.632 39.5362 189.178 40.5376 190.225 41.3114C191.272 42.0853 192.638 42.4494 194.322 42.4494C195.779 42.4494 197.008 42.1763 197.918 41.6301C198.828 41.0838 199.329 40.31 199.329 39.3541C199.329 38.5802 199.101 37.9885 198.692 37.5788C198.237 37.2146 197.69 36.9415 196.962 36.7594C196.234 36.5774 195.141 36.3953 193.685 36.2132C191.636 35.9856 189.952 35.667 188.632 35.2573C187.312 34.8476 186.265 34.2103 185.445 33.2999C184.626 32.3895 184.262 31.206 184.262 29.6583C184.262 28.2472 184.626 26.9726 185.445 25.8801C186.265 24.7877 187.357 23.9228 188.768 23.2855C190.18 22.6937 191.773 22.3751 193.594 22.3751C196.507 22.3751 198.919 23.0579 200.74 24.3325C202.561 25.6525 203.562 27.4733 203.745 29.8404H198.965C198.828 28.7934 198.282 27.9285 197.372 27.2457C196.416 26.5629 195.232 26.1988 193.821 26.1988C192.365 26.1988 191.227 26.4719 190.362 27.0181C189.451 27.5644 189.042 28.3382 189.042 29.2486C189.042 29.9769 189.224 30.4777 189.679 30.8418C190.134 31.206 190.68 31.4336 191.363 31.5702C192 31.7067 193.093 31.8433 194.595 32.0254C196.598 32.253 198.282 32.5716 199.648 33.0268C201.013 33.482 202.106 34.1648 202.925 35.1207C203.745 36.0766 204.154 37.3512 204.154 38.9899C204.154 40.4466 203.699 41.7666 202.88 42.8591C202.015 43.9516 200.831 44.8165 199.375 45.4082C197.872 46 196.188 46.2731 194.367 46.2731C191.227 46.2731 188.677 45.5903 186.766 44.1792C184.854 42.7681 183.852 40.8107 183.807 38.3071H188.541ZM206.42 40.9473C207.011 40.401 207.785 40.0824 208.696 40.0824C209.606 40.0824 210.334 40.401 210.972 40.9473C211.563 41.539 211.882 42.2674 211.882 43.1778C211.882 44.0882 211.563 44.862 210.972 45.4082C210.334 46 209.606 46.2731 208.696 46.2731C207.785 46.2731 207.011 46 206.42 45.4082C205.828 44.862 205.555 44.0882 205.555 43.1778C205.555 42.2674 205.828 41.539 206.42 40.9473Z" fill="#00916E"/>
<path d="M233.396 24.9697C235.126 26.6995 236.036 29.4307 236.036 33.1634V46H231.12V33.4365C231.12 31.2515 230.619 29.5673 229.664 28.3837C228.708 27.2457 227.342 26.654 225.521 26.654C223.564 26.654 222.016 27.3368 220.924 28.7024C219.831 30.068 219.285 31.8888 219.285 34.2103V46H214.369V14.136H219.285V26.0622C221.015 23.6497 223.473 22.4206 226.614 22.4206C229.39 22.4206 231.666 23.2855 233.396 24.9697ZM239.233 28.1106C240.189 26.2898 241.509 24.9242 243.238 23.9228C244.968 22.9213 246.926 22.4206 249.156 22.4206C251.387 22.4206 253.344 22.8758 255.074 23.7862C256.803 24.6966 258.124 26.0167 259.125 27.6554C260.126 29.3397 260.627 31.297 260.673 33.5275C260.673 34.1648 260.627 34.7566 260.536 35.3938H242.965V35.667C243.056 37.7154 243.694 39.3086 244.877 40.4921C246.015 41.6756 247.563 42.2674 249.475 42.2674C250.977 42.2674 252.251 41.9487 253.298 41.2204C254.3 40.4921 254.983 39.4906 255.347 38.1706H260.263C259.808 40.5376 258.67 42.495 256.803 43.9971C254.937 45.5448 252.616 46.2731 249.839 46.2731C247.381 46.2731 245.287 45.8179 243.466 44.8165C241.645 43.815 240.28 42.4494 239.278 40.6286C238.277 38.8534 237.822 36.7594 237.822 34.3924C237.822 32.0254 238.277 29.9314 239.233 28.1106ZM255.665 31.7978C255.438 30.1135 254.755 28.7934 253.617 27.8375C252.479 26.8816 251.068 26.3809 249.338 26.3809C247.699 26.3809 246.334 26.8816 245.15 27.883C243.967 28.8845 243.33 30.159 243.147 31.7978H255.665ZM285.131 41.7211V46H282.537C280.989 46 279.896 45.6814 279.259 45.0441C278.576 44.4068 278.258 43.4964 278.258 42.2674C276.482 44.953 273.933 46.2731 270.565 46.2731C267.925 46.2731 265.831 45.6814 264.283 44.4523C262.69 43.2688 261.916 41.5846 261.916 39.4451C261.916 37.0781 262.735 35.2118 264.465 33.9372C266.149 32.6626 268.607 31.9798 271.885 31.9798H277.757V30.5687C277.757 29.2941 277.302 28.2472 276.391 27.5189C275.481 26.7905 274.206 26.3809 272.613 26.3809C271.156 26.3809 269.973 26.6995 269.063 27.3368C268.152 27.9741 267.606 28.7934 267.424 29.7949H262.599C262.826 27.4733 263.873 25.6525 265.694 24.378C267.515 23.1034 269.882 22.4206 272.841 22.4206C275.936 22.4206 278.349 23.1489 280.078 24.6056C281.763 26.0622 282.628 28.1561 282.628 30.8874V40.0824C282.628 41.1749 283.128 41.7211 284.175 41.7211H285.131ZM277.757 35.6214H271.657C270.11 35.6214 268.972 35.9401 268.152 36.5318C267.333 37.1236 266.923 37.9885 266.923 39.1265C266.923 40.1279 267.287 40.9473 268.061 41.539C268.835 42.1763 269.882 42.4494 271.248 42.4494C273.25 42.4494 274.844 41.9032 275.982 40.8107C277.12 39.7182 277.711 38.2616 277.757 36.4408V35.6214ZM285.988 14.136H290.904V46H285.988V14.136ZM293.903 16.1844H298.819V22.6937H304.463V27.0181H298.819V39.172C298.819 40.0824 299.001 40.7652 299.365 41.1294C299.729 41.4935 300.321 41.6756 301.231 41.6756H304.964V46H300.23C297.999 46 296.406 45.4993 295.405 44.4523C294.403 43.4509 293.903 41.8577 293.903 39.6727V16.1844ZM324.845 24.9697C326.575 26.6995 327.485 29.4307 327.485 33.1634V46H322.569V33.4365C322.569 31.2515 322.069 29.5673 321.113 28.3837C320.157 27.2457 318.791 26.654 316.97 26.654C315.013 26.654 313.465 27.3368 312.373 28.7024C311.28 30.068 310.734 31.8888 310.734 34.2103V46H305.818V14.136H310.734V26.0622C312.464 23.6497 314.922 22.4206 318.063 22.4206C320.839 22.4206 323.115 23.2855 324.845 24.9697Z" fill="black"/>
<defs>
<linearGradient id="paint0_linear_6341_62611" x1="48.6077" y1="5.36281" x2="-7.69742" y2="61.6679" gradientUnits="userSpaceOnUse">
<stop offset="0.1636" stop-color="#1DDDA6"/>
<stop offset="0.4432" stop-color="#00926E"/>
<stop offset="0.7454" stop-color="#0E7F5C"/>
</linearGradient>
</defs>
</svg>
