<svg width="140" height="94" viewBox="0 0 140 94" fill="none" xmlns="http://www.w3.org/2000/svg">
<path d="M70 83.3414C98.1787 83.3414 121.022 82.4524 121.022 81.3556C121.022 80.2588 98.1787 79.3696 70 79.3696C41.8213 79.3696 18.9778 80.2588 18.9778 81.3556C18.9778 82.4524 41.8213 83.3414 70 83.3414Z" fill="url(#paint0_linear_6360_62733)"/>
<path d="M96.7559 18.9771H34.3781C32.8317 18.9771 31.5781 20.2307 31.5781 21.777V72.3326C31.5781 73.879 32.8317 75.1326 34.3781 75.1326H96.7559C98.3023 75.1326 99.5559 73.879 99.5559 72.3326V21.777C99.5559 20.2307 98.3023 18.9771 96.7559 18.9771Z" fill="#00916E" stroke="#E1E4E5" stroke-width="0.622222"/>
<path fill-rule="evenodd" clip-rule="evenodd" d="M39.2001 36.9762V37.7077C39.2001 38.1117 39.5235 38.4395 39.922 38.4395H48.5863C48.9848 38.4395 49.3082 38.1117 49.3082 37.7077V36.9645C49.3082 34.7505 46.8116 33.3121 44.2542 33.3121C41.6967 33.3121 39.2001 34.7513 39.2001 36.9645M42.4414 26.8847C41.4402 27.8858 41.4402 29.509 42.4414 30.5102C43.4425 31.5115 45.0658 31.5115 46.0671 30.5102C47.0682 29.509 47.0682 27.8858 46.0671 26.8847C45.0658 25.8835 43.4425 25.8835 42.4414 26.8847Z" fill="#00B488"/>
<path d="M49.9337 40.4438H38.267C37.8375 40.4438 37.4893 40.7921 37.4893 41.2216C37.4893 41.6512 37.8375 41.9994 38.267 41.9994H49.9337C50.3633 41.9994 50.7115 41.6512 50.7115 41.2216C50.7115 40.7921 50.3633 40.4438 49.9337 40.4438Z" fill="#E1E4E5"/>
<path d="M49.9337 43.5552H38.267C37.8375 43.5552 37.4893 43.9034 37.4893 44.333C37.4893 44.7625 37.8375 45.1107 38.267 45.1107H49.9337C50.3633 45.1107 50.7115 44.7625 50.7115 44.333C50.7115 43.9034 50.3633 43.5552 49.9337 43.5552Z" fill="#E1E4E5"/>
<path fill-rule="evenodd" clip-rule="evenodd" d="M39.2 60.6202V61.3518C39.2 61.7558 39.5233 62.0835 39.9219 62.0835H48.5862C48.9847 62.0835 49.3081 61.7558 49.3081 61.3518V60.6085C49.3081 58.3945 46.8114 56.9561 44.2541 56.9561C41.6966 56.9561 39.2 58.3953 39.2 60.6085M42.4413 50.5287C41.4401 51.5299 41.4401 53.1531 42.4413 54.1542C43.4424 55.1555 45.0656 55.1555 46.0669 54.1542C47.0681 53.1531 47.0681 51.5299 46.0669 50.5287C45.0656 49.5275 43.4424 49.5275 42.4413 50.5287Z" fill="white"/>
<path d="M49.9337 64.0884H38.267C37.8375 64.0884 37.4893 64.4366 37.4893 64.8662C37.4893 65.2957 37.8375 65.6439 38.267 65.6439H49.9337C50.3633 65.6439 50.7115 65.2957 50.7115 64.8662C50.7115 64.4366 50.3633 64.0884 49.9337 64.0884Z" fill="#E1E4E5"/>
<path d="M49.9337 67.1997H38.267C37.8375 67.1997 37.4893 67.5479 37.4893 67.9775C37.4893 68.407 37.8375 68.7553 38.267 68.7553H49.9337C50.3633 68.7553 50.7115 68.407 50.7115 67.9775C50.7115 67.5479 50.3633 67.1997 49.9337 67.1997Z" fill="#E1E4E5"/>
<path fill-rule="evenodd" clip-rule="evenodd" d="M58.6444 36.9762V37.7077C58.6444 38.1117 58.9678 38.4395 59.3663 38.4395H68.0306C68.4292 38.4395 68.7526 38.1117 68.7526 37.7077V36.9645C68.7526 34.7505 66.2559 33.3121 63.6986 33.3121C61.1411 33.3121 58.6444 34.7513 58.6444 36.9645M61.8857 26.8847C60.8846 27.8858 60.8846 29.509 61.8857 30.5102C62.8869 31.5115 64.5101 31.5115 65.5114 30.5102C66.5126 29.509 66.5126 27.8858 65.5114 26.8847C64.5101 25.8835 62.8869 25.8835 61.8857 26.8847Z" fill="#00B488"/>
<path d="M69.378 40.4438H57.7114C57.2818 40.4438 56.9336 40.7921 56.9336 41.2216C56.9336 41.6512 57.2818 41.9994 57.7114 41.9994H69.378C69.8076 41.9994 70.1558 41.6512 70.1558 41.2216C70.1558 40.7921 69.8076 40.4438 69.378 40.4438Z" fill="#E1E4E5"/>
<path d="M69.378 43.5552H57.7114C57.2818 43.5552 56.9336 43.9034 56.9336 44.333C56.9336 44.7625 57.2818 45.1107 57.7114 45.1107H69.378C69.8076 45.1107 70.1558 44.7625 70.1558 44.333C70.1558 43.9034 69.8076 43.5552 69.378 43.5552Z" fill="#E1E4E5"/>
<path fill-rule="evenodd" clip-rule="evenodd" d="M58.6445 60.6202V61.3518C58.6445 61.7558 58.9679 62.0835 59.3665 62.0835H68.0308C68.4293 62.0835 68.7527 61.7558 68.7527 61.3518V60.6085C68.7527 58.3945 66.256 56.9561 63.6987 56.9561C61.1412 56.9561 58.6445 58.3953 58.6445 60.6085M61.8858 50.5287C60.8847 51.5299 60.8847 53.1531 61.8858 54.1542C62.887 55.1555 64.5102 55.1555 65.5115 54.1542C66.5127 53.1531 66.5127 51.5299 65.5115 50.5287C64.5102 49.5275 62.887 49.5275 61.8858 50.5287Z" fill="#00B488"/>
<path d="M69.378 64.0884H57.7114C57.2818 64.0884 56.9336 64.4366 56.9336 64.8662C56.9336 65.2957 57.2818 65.6439 57.7114 65.6439H69.378C69.8076 65.6439 70.1558 65.2957 70.1558 64.8662C70.1558 64.4366 69.8076 64.0884 69.378 64.0884Z" fill="#E1E4E5"/>
<path d="M69.378 67.1997H57.7114C57.2818 67.1997 56.9336 67.5479 56.9336 67.9775C56.9336 68.407 57.2818 68.7553 57.7114 68.7553H69.378C69.8076 68.7553 70.1558 68.407 70.1558 67.9775C70.1558 67.5479 69.8076 67.1997 69.378 67.1997Z" fill="#E1E4E5"/>
<path fill-rule="evenodd" clip-rule="evenodd" d="M78.0889 36.9762V37.7077C78.0889 38.1116 78.4123 38.4395 78.8108 38.4395H87.4751C87.8736 38.4395 88.197 38.1116 88.197 37.7077V36.9645C88.197 34.7505 85.7004 33.3121 83.143 33.3121C80.5855 33.3121 78.0889 34.7513 78.0889 36.9645M78.0889 60.6206V61.3522C78.0889 61.756 78.4123 62.0839 78.8108 62.0839H87.4751C87.8736 62.0839 88.197 61.756 88.197 61.3522V60.6089C88.197 58.3949 85.7004 56.9565 83.143 56.9565C80.5855 56.9565 78.0889 58.3957 78.0889 60.6089M81.3302 26.8847C80.329 27.8858 80.329 29.509 81.3302 30.5103C82.3313 31.5115 83.9546 31.5115 84.9559 30.5103C85.957 29.509 85.957 27.8858 84.9559 26.8847C83.9546 25.8835 82.3313 25.8835 81.3302 26.8847ZM81.3302 50.5291C80.329 51.5302 80.329 53.1535 81.3302 54.1548C82.3313 55.1559 83.9546 55.1559 84.9559 54.1548C85.957 53.1535 85.957 51.5302 84.9559 50.5291C83.9546 49.5279 82.3313 49.5279 81.3302 50.5291Z" fill="white"/>
<path d="M88.8221 40.4438H77.1555C76.7259 40.4438 76.3777 40.7921 76.3777 41.2216C76.3777 41.6512 76.7259 41.9994 77.1555 41.9994H88.8221C89.2517 41.9994 89.5999 41.6512 89.5999 41.2216C89.5999 40.7921 89.2517 40.4438 88.8221 40.4438Z" fill="#E1E4E5"/>
<path d="M88.8223 64.0894H77.1556C76.726 64.0894 76.3778 64.4376 76.3778 64.8671C76.3778 65.2967 76.726 65.6449 77.1556 65.6449H88.8223C89.2518 65.6449 89.6 65.2967 89.6 64.8671C89.6 64.4376 89.2518 64.0894 88.8223 64.0894Z" fill="#E1E4E5"/>
<path d="M85.2444 43.5552H77.1555C76.7259 43.5552 76.3777 43.9034 76.3777 44.333C76.3777 44.7625 76.7259 45.1107 77.1555 45.1107H85.2444C85.6739 45.1107 86.0221 44.7625 86.0221 44.333C86.0221 43.9034 85.6739 43.5552 85.2444 43.5552Z" fill="#E1E4E5"/>
<path d="M88.8221 67.1997H77.1555C76.7259 67.1997 76.3777 67.5479 76.3777 67.9775C76.3777 68.407 76.7259 68.7553 77.1555 68.7553H88.8221C89.2517 68.7553 89.5999 68.407 89.5999 67.9775C89.5999 67.5479 89.2517 67.1997 88.8221 67.1997Z" fill="#E1E4E5"/>
<path d="M106.301 58.068C106.301 58.068 103.771 59.7231 101.633 59.5535C99.4947 59.384 98.1608 57.2594 97.4448 56.4882C96.7294 55.7169 94.9259 53.8532 95.4669 53.0717C96.0079 52.2902 96.4889 53.1319 96.6692 53.6729C96.8496 54.2139 96.6723 53.1355 96.9416 53.1938C97.2104 53.2521 97.1033 53.9067 97.3672 54.1208C97.6311 54.3342 101.539 56.3782 102.38 56.2579C103.222 56.1377 103.59 55.9069 103.827 55.6615C104.064 55.4158 106.614 57.5337 106.301 58.068Z" fill="#F8AE9D"/>
<path d="M98.0305 78.1992L98.0238 79.3324L95.4346 80.7276V81.3379H100.613V80.2919L100.884 78.1992H98.0305Z" fill="#E1E4E5"/>
<path d="M111.019 64.3752C111.019 64.3752 103.871 61.932 100.569 62.3293C97.3174 62.9906 97.2929 66.9126 97.3048 69.22C97.317 71.5272 97.6998 78.2002 97.6998 78.2002H101.334C101.334 78.2002 102.635 72.1987 103.069 69.3677C103.069 69.3677 103.247 68.1006 104.204 68.5814C108.12 70.5509 110.58 69.6636 111.027 67.7999C111.473 65.9364 111.019 64.3752 111.019 64.3752Z" fill="#12362E"/>
<path d="M108.064 53.9165C108.064 53.9165 105.724 55.0678 103.822 55.3557C101.839 55.6562 104.604 58.2413 106.768 58.2413C108.932 58.2413 108.064 53.9165 108.064 53.9165Z" fill="#00916E"/>
<path d="M117.717 79.5916L119.104 79.5982L120.399 81.3416H121.046V76.459H119.936L117.717 76.9014V79.5916Z" fill="#E1E4E5"/>
<path d="M117.721 79.704V76.6982C114.788 76.3976 113.641 76.3622 110.56 76.3477C108.348 76.3374 109.496 75.7362 109.496 75.7362C111.918 74.0529 114.405 69.9651 114.405 69.9651C115.872 67.6806 115.043 64.1338 115.043 64.1338C115.043 64.1338 112.365 64.9153 110.07 64.7951C110.07 64.7951 107.583 67.8611 103.247 74.5941C101.515 77.2843 101.713 80.2353 104.967 80.3904C104.967 80.3904 112.811 80.4855 117.721 79.704Z" fill="#12362E"/>
<path d="M108.896 53.5938C108.896 53.5938 106.828 53.9738 106.575 56.6514C106.386 58.6497 106.542 61.3598 106.542 62.2313C106.542 63.1031 106.098 63.0298 106.708 63.2913C107.318 63.5528 110.555 66.1768 114.999 64.1496C114.999 64.1496 115.693 60.1327 115.485 57.7005C115.354 56.1704 114.944 53.6725 112.296 53.458L108.896 53.5938Z" fill="#00916E"/>
<path d="M109.517 49.4249L108.38 49.3984C108.38 49.3984 107.441 53.5104 109.766 53.0426L109.722 53.4766C109.722 53.4766 109.011 53.5807 108.742 53.6409C108.742 53.6409 109.548 54.3351 110.52 54.2577C111.491 54.1801 112.169 53.5471 112.169 53.5471L111.692 53.4989L111.515 51.7724C111.515 51.7724 112.07 51.4779 112.105 51.131C112.14 50.7841 112.062 50.6885 111.811 50.5755C111.559 50.4624 111.169 50.8616 111.169 50.8616C111.169 50.8616 110.813 50.0375 110.779 49.5078L109.517 49.4249Z" fill="#F8AE9D"/>
<path d="M98.5922 51.6289L115.832 65.8081C116.108 66.0346 116.284 66.3607 116.321 66.7157C116.358 67.0708 116.254 67.4261 116.031 67.7048C115.806 67.9854 115.479 68.1655 115.122 68.2055C114.765 68.2455 114.406 68.1422 114.125 67.9182L96.6084 53.9134L98.5922 51.6289Z" fill="#12362E"/>
<path d="M92.2203 38.7329C97.0182 38.7329 100.907 42.6218 100.907 47.4197C100.907 52.2177 97.0182 56.1066 92.2203 56.1066C87.4223 56.1066 83.5334 52.2177 83.5334 47.4197C83.5334 42.6218 87.4223 38.7329 92.2203 38.7329ZM92.2203 53.5612C95.612 53.5612 98.3618 50.8115 98.3618 47.4197C98.3618 44.028 95.612 41.2783 92.2203 41.2783C88.8286 41.2783 86.0788 44.028 86.0788 47.4197C86.0788 50.8115 88.8286 53.5612 92.2203 53.5612Z" fill="#E1E4E5"/>
<path d="M113.094 63.0587C113.094 63.0587 110.565 64.7137 108.426 64.5441C106.288 64.3747 104.954 62.2502 104.238 61.4789C103.522 60.7075 101.719 58.844 102.26 58.0624C102.801 57.2809 103.282 58.1225 103.462 58.6637C103.643 59.2047 103.465 58.1262 103.735 58.1844C104.003 58.2427 103.896 58.8975 104.16 59.1115C104.424 59.3249 108.332 61.3688 109.173 61.2487C110.015 61.1284 110.383 60.8976 110.62 60.6523C110.857 60.4064 113.407 62.5242 113.094 63.0587Z" fill="#F8AE9D"/>
<path d="M115.302 56.416C115.302 56.416 115.425 60.2863 114.523 61.9095C113.621 63.5326 113.557 63.5854 112.717 62.7174C111.878 61.8493 110.375 60.9716 110.585 60.2682C110.796 59.565 111.228 58.3512 111.397 57.2805C111.577 56.1382 111.998 53.7937 112.9 53.4932C112.9 53.4932 115.059 54.2896 115.302 56.416Z" fill="#00916E"/>
<path d="M112.036 51.7476C111.85 52.0441 111.405 52.0427 111.484 51.7017C111.572 51.314 111.628 50.8002 111.297 50.8609C110.967 50.9217 110.923 51.1756 110.808 51.0123C110.692 50.8488 110.758 50.2194 109.81 50.0715C108.862 49.924 108.438 50.2127 108.017 49.97C107.764 49.8247 107.681 49.5259 107.654 49.3094C107.647 49.2479 107.699 49.1689 107.734 49.2199C107.767 49.2683 107.863 49.2758 107.841 49.2215C107.708 48.8853 107.533 48.165 108.228 47.7181C109.16 47.1198 109.983 47.6673 110.475 47.751C111.56 47.9355 112.257 48.0775 112.536 48.8315C112.767 49.457 112.556 50.9175 112.036 51.7476Z" fill="#12362E"/>
<path d="M27.1237 58.9038C25.3493 60.5348 22.2132 60.0122 22.2132 60.0122C22.2132 60.0122 21.956 56.8452 23.7319 55.2152C25.5063 53.5842 28.6409 54.1057 28.6409 54.1057C28.6409 54.1057 28.8982 57.2727 27.1237 58.9038Z" fill="url(#paint1_linear_6360_62733)"/>
<path d="M25.9777 47.1337C26.5791 47.1337 27.0666 47.6213 27.0666 48.2226C27.0666 48.824 26.5791 49.3115 25.9777 49.3115C25.3763 49.3115 24.8888 48.824 24.8888 48.2226C24.8888 47.6213 25.3763 47.1337 25.9777 47.1337Z" fill="#E1E4E5"/>
<path d="M110.133 31.2667C110.821 31.2667 111.378 30.7096 111.378 30.0223C111.378 29.335 110.821 28.7778 110.133 28.7778C109.446 28.7778 108.889 29.335 108.889 30.0223C108.889 30.7096 109.446 31.2667 110.133 31.2667Z" fill="#12362E"/>
<path d="M106.089 39.9783C106.948 39.9783 107.644 39.2819 107.644 38.4227C107.644 37.5636 106.948 36.8672 106.089 36.8672C105.23 36.8672 104.533 37.5636 104.533 38.4227C104.533 39.2819 105.23 39.9783 106.089 39.9783Z" fill="#E1E4E5"/>
<path d="M102.639 26.6108C102.569 26.8739 102.725 27.1444 102.988 27.2149C103.251 27.2854 103.522 27.1293 103.592 26.8661C103.663 26.603 103.506 26.3325 103.243 26.262C102.98 26.1915 102.71 26.3476 102.639 26.6108Z" fill="#E1E4E5"/>
<path d="M107.489 23.8002C107.918 23.8002 108.266 23.452 108.266 23.0224C108.266 22.5929 107.918 22.2446 107.489 22.2446C107.059 22.2446 106.711 22.5929 106.711 23.0224C106.711 23.452 107.059 23.8002 107.489 23.8002Z" fill="#E1E4E5"/>
<path d="M101.823 14.1562H101.8C101.659 16.0767 100.178 16.1063 100.178 16.1063C100.178 16.1063 101.811 16.1371 101.811 18.3562C101.811 16.1371 103.444 16.1063 103.444 16.1063C103.444 16.1063 101.964 16.0767 101.823 14.1562Z" fill="#E1E4E5"/>
<path d="M24.8107 21.156C25.8845 21.156 26.7551 22.0266 26.7551 23.1005C26.7551 24.1744 25.8845 25.0449 24.8107 25.0449C23.7368 25.0449 22.8662 24.1744 22.8662 23.1005C22.8662 22.0266 23.7368 21.156 24.8107 21.156Z" fill="url(#paint2_linear_6360_62733)"/>
<path d="M35.6999 15.7117C35.1415 15.7117 34.6888 15.259 34.6888 14.7006C34.6888 14.1421 35.1415 13.6895 35.6999 13.6895C36.2584 13.6895 36.7111 14.1421 36.7111 14.7006C36.7111 15.259 36.2584 15.7117 35.6999 15.7117Z" fill="#E1E4E5"/>
<defs>
<linearGradient id="paint0_linear_6360_62733" x1="72.1758" y1="85.5684" x2="72.1711" y2="75.0477" gradientUnits="userSpaceOnUse">
<stop stop-color="white"/>
<stop offset="1" stop-color="#EEEEEE"/>
</linearGradient>
<linearGradient id="paint1_linear_6360_62733" x1="20.0943" y1="64.4259" x2="33.2637" y2="45.9291" gradientUnits="userSpaceOnUse">
<stop stop-color="white"/>
<stop offset="1" stop-color="#EEEEEE"/>
</linearGradient>
<linearGradient id="paint2_linear_6360_62733" x1="26.838" y1="17.0313" x2="26.7181" y2="27.331" gradientUnits="userSpaceOnUse">
<stop stop-color="white"/>
<stop offset="1" stop-color="#EEEEEE"/>
</linearGradient>
</defs>
</svg>
