<svg width="140" height="94" viewBox="0 0 140 94" fill="none" xmlns="http://www.w3.org/2000/svg">
<path fill-rule="evenodd" clip-rule="evenodd" d="M44.352 22.0864C38.5763 22.0864 33.8513 26.8072 33.8513 32.578C33.8513 38.3488 38.5763 43.0696 44.352 43.0696C45.5106 43.0696 46.4597 44.0177 46.4597 45.1754C46.4597 46.333 45.5106 47.2811 44.352 47.2811H38.8574C36.0398 47.2811 33.7341 49.5849 33.7341 52.4C33.7341 55.2152 36.0398 57.5188 38.8574 57.5188C41.2943 57.5188 43.2882 59.511 43.2882 61.9458C43.2882 66.388 46.926 70.0225 51.372 70.0225H98.8262C104.602 70.0225 109.327 65.3018 109.327 59.531C109.327 53.7602 104.602 49.0394 98.8262 49.0394H97.8104C96.6518 49.0394 95.7028 48.0923 95.7028 46.9336C95.7028 45.7758 96.6506 44.8277 97.8104 44.8277H104.648C107.465 44.8277 109.771 42.5241 109.771 39.709C109.771 36.8973 107.471 34.596 104.658 34.5901H99.1566C96.7197 34.5901 94.7258 32.5979 94.7258 30.1632C94.7258 25.721 91.0881 22.0864 86.642 22.0864H44.352Z" fill="url(#paint0_linear_6360_62776)"/>
<path d="M51.4391 36.2446H35.7974C32.915 36.2446 30.5784 38.5813 30.5784 41.4637V56.4961C30.5784 59.3785 32.915 61.7151 35.7974 61.7151H51.4391C54.3215 61.7151 56.6582 59.3785 56.6582 56.4961V41.4637C56.6582 38.5813 54.3215 36.2446 51.4391 36.2446Z" fill="#00916E"/>
<path d="M46.122 59.4256L44.8064 58.11C44.0931 57.3967 42.9365 57.3967 42.2231 58.11L40.9076 59.4256C40.1942 60.1389 40.1942 61.2955 40.9076 62.0089L42.2231 63.3244C42.9365 64.0378 44.0931 64.0378 44.8064 63.3244L46.122 62.0089C46.8353 61.2955 46.8353 60.1389 46.122 59.4256Z" fill="#00916E"/>
<path fill-rule="evenodd" clip-rule="evenodd" d="M50.4429 54.6154V55.6066C50.4429 56.1537 50.0022 56.5978 49.4592 56.5978H37.6555C37.1124 56.5978 36.6718 56.1537 36.6718 55.6066V54.5995C36.6718 51.6001 40.0733 49.6513 43.5574 49.6513C47.0414 49.6513 50.4429 51.6011 50.4429 54.5995M45.9093 42.3993C47.2419 43.7796 47.2419 46.0172 45.9093 47.3975C44.5768 48.7777 42.4161 48.7777 41.0836 47.3975C39.751 46.0172 39.751 43.7796 41.0836 42.3993C42.4161 41.0192 44.5768 41.0192 45.9093 42.3993Z" fill="white"/>
<path d="M78.7213 17.7275H63.0795C60.1971 17.7275 57.8605 20.0642 57.8605 22.9466V37.979C57.8605 40.8614 60.1971 43.198 63.0795 43.198H78.7213C81.6037 43.198 83.9403 40.8614 83.9403 37.979V22.9466C83.9403 20.0642 81.6037 17.7275 78.7213 17.7275Z" fill="#00916E"/>
<path d="M73.404 40.907L72.0884 39.5915C71.375 38.8781 70.2185 38.8781 69.5051 39.5915L68.1896 40.907C67.4762 41.6204 67.4762 42.777 68.1896 43.4903L69.5051 44.8059C70.2185 45.5192 71.3751 45.5192 72.0884 44.8059L73.4039 43.4903C74.1173 42.777 74.1173 41.6204 73.404 40.907Z" fill="#00916E"/>
<path fill-rule="evenodd" clip-rule="evenodd" d="M77.7248 36.0967V37.0881C77.7248 37.6351 77.2841 38.0793 76.7412 38.0793H64.9373C64.3944 38.0793 63.9537 37.6351 63.9537 37.0881V36.0808C63.9537 33.0814 67.3551 31.1328 70.8392 31.1328C74.3234 31.1328 77.7248 33.0825 77.7248 36.0808M73.1911 23.8808C74.5237 25.261 74.5237 27.4987 73.1911 28.8789C71.8586 30.259 69.6981 30.259 68.3654 28.8789C67.0328 27.4987 67.0328 25.261 68.3654 23.8808C69.6981 22.5007 71.8586 22.5007 73.1911 23.8808Z" fill="white"/>
<path d="M78.7213 48.418H63.0795C60.1971 48.418 57.8605 50.7546 57.8605 53.637V68.6694C57.8605 71.5518 60.1971 73.8885 63.0795 73.8885H78.7213C81.6037 73.8885 83.9403 71.5518 83.9403 68.6694V53.637C83.9403 50.7546 81.6037 48.418 78.7213 48.418Z" fill="#00916E"/>
<path d="M73.404 71.5974L72.0884 70.2819C71.375 69.5685 70.2185 69.5685 69.5051 70.2819L68.1896 71.5974C67.4762 72.3108 67.4762 73.4674 68.1896 74.1808L69.5051 75.4963C70.2185 76.2097 71.375 76.2097 72.0884 75.4963L73.4039 74.1808C74.1173 73.4674 74.1173 72.3108 73.404 71.5974Z" fill="#00916E"/>
<path fill-rule="evenodd" clip-rule="evenodd" d="M77.7248 66.7868V67.778C77.7248 68.3251 77.2841 68.7692 76.7412 68.7692H64.9373C64.3944 68.7692 63.9537 68.3251 63.9537 67.778V66.7709C63.9537 63.7715 67.3551 61.8227 70.8392 61.8227C74.3234 61.8227 77.7248 63.7724 77.7248 66.7709M73.1911 54.5707C74.5237 55.951 74.5237 58.1886 73.1911 59.5689C71.8586 60.9491 69.6981 60.9491 68.3654 59.5689C67.0328 58.1886 67.0328 55.951 68.3654 54.5707C69.6981 53.1906 71.8586 53.1906 73.1911 54.5707Z" fill="white"/>
<path d="M106.003 30.085H90.3614C87.479 30.085 85.1423 32.4216 85.1423 35.304V50.3364C85.1423 53.2188 87.479 55.5555 90.3614 55.5555H106.003C108.886 55.5555 111.222 53.2188 111.222 50.3364V35.304C111.222 32.4216 108.886 30.085 106.003 30.085Z" fill="#00916E"/>
<path d="M100.686 53.2639L99.3705 51.9484C98.6572 51.235 97.5006 51.235 96.7872 51.9484L95.4717 53.2639C94.7583 53.9773 94.7583 55.1339 95.4717 55.8473L96.7872 57.1628C97.5006 57.8762 98.6572 57.8762 99.3705 57.1628L100.686 55.8473C101.399 55.1339 101.399 53.9773 100.686 53.2639Z" fill="#00916E"/>
<path fill-rule="evenodd" clip-rule="evenodd" d="M105.007 48.4537V49.4449C105.007 49.992 104.566 50.4361 104.023 50.4361H92.2196C91.6765 50.4361 91.2358 49.992 91.2358 49.4449V48.4379C91.2358 45.4385 94.6374 43.4897 98.1214 43.4897C101.605 43.4897 105.007 45.4394 105.007 48.4379M100.473 36.2378C101.806 37.6179 101.806 39.8557 100.473 41.2358C99.1407 42.6161 96.9802 42.6161 95.6476 41.2358C94.3151 39.8557 94.3151 37.6179 95.6476 36.2378C96.9802 34.8576 99.1407 34.8576 100.473 36.2378Z" fill="white"/>
<path fill-rule="evenodd" clip-rule="evenodd" d="M39.759 26.2047V21.1989C39.759 20.6803 40.1783 20.2603 40.6956 20.2603H46.3154C46.8329 20.2603 47.2521 20.6803 47.2521 21.1989V26.2047C47.2522 26.3719 47.2075 26.5362 47.1228 26.6804C47.0381 26.8247 46.9164 26.9436 46.7702 27.0251L43.9603 28.5892C43.8212 28.6667 43.6646 28.7075 43.5054 28.7075C43.3461 28.7075 43.1895 28.6667 43.0504 28.5892L40.2405 27.0251C40.0945 26.9435 39.9729 26.8245 39.8883 26.6803C39.8036 26.5361 39.759 26.3719 39.759 26.2047Z" fill="#E1E4E5"/>
<path d="M41.9482 24.4007H45.0632M41.9482 22.9414H45.0632M41.9482 25.8179H45.0632" stroke="white" stroke-width="3.094" stroke-linecap="round" stroke-linejoin="round"/>
<path d="M49.6273 66.9344C49.4957 67.4259 49.7873 67.931 50.2787 68.0627C50.7702 68.1944 51.2753 67.9027 51.407 67.4113C51.5386 66.9199 51.247 66.4147 50.7556 66.2831C50.2641 66.1514 49.759 66.443 49.6273 66.9344Z" fill="#E1E4E5"/>
<path d="M50.6411 32.3002C50.5095 32.7916 50.8011 33.2967 51.2925 33.4284C51.784 33.5601 52.2891 33.2684 52.4208 32.777C52.5524 32.2856 52.2608 31.7805 51.7694 31.6488C51.2779 31.5171 50.7728 31.8087 50.6411 32.3002Z" fill="#E1E4E5"/>
<path d="M29.0163 34.16C28.8846 34.6515 29.1762 35.1566 29.6676 35.2883C30.1591 35.4199 30.6642 35.1283 30.7959 34.6369C30.9276 34.1455 30.6359 33.6403 30.1445 33.5086C29.6531 33.377 29.1479 33.6686 29.0163 34.16Z" fill="#E1E4E5"/>
<path d="M87.9776 27.0643C87.8459 27.5558 88.1375 28.0609 88.6289 28.1926C89.1204 28.3242 89.6255 28.0326 89.7572 27.5412C89.8889 27.0497 89.5972 26.5446 89.1058 26.4129C88.6144 26.2813 88.1092 26.5729 87.9776 27.0643Z" fill="#E1E4E5"/>
<path d="M88.6536 61.0209C88.5219 61.5123 88.8135 62.0174 89.305 62.1491C89.7964 62.2808 90.3015 61.9891 90.4332 61.4977C90.5649 61.0063 90.2732 60.5012 89.7818 60.3695C89.2904 60.2378 88.7853 60.5294 88.6536 61.0209Z" fill="#E1E4E5"/>
<path fill-rule="evenodd" clip-rule="evenodd" d="M101.396 64.3694H100.945C100.836 64.3694 100.748 64.2808 100.748 64.1728V63.7222C100.748 63.6131 100.837 63.5254 100.945 63.5254H101.396C101.504 63.5254 101.592 63.614 101.592 63.7222V64.1728C101.592 64.1986 101.587 64.2242 101.577 64.2481C101.567 64.272 101.553 64.2937 101.535 64.3119C101.516 64.3302 101.495 64.3447 101.471 64.3545C101.447 64.3644 101.421 64.3695 101.396 64.3694ZM99.8332 64.3694H99.3826C99.3305 64.3692 99.2806 64.3484 99.2437 64.3116C99.2069 64.2748 99.1861 64.2249 99.1858 64.1728V63.7222C99.1858 63.6131 99.2745 63.5254 99.3826 63.5254H99.8332C99.9412 63.5254 100.03 63.614 100.03 63.7222V64.1728C100.03 64.2249 100.009 64.2747 99.972 64.3116C99.9352 64.3484 99.8853 64.3692 99.8332 64.3694ZM98.2697 64.3694H97.8191C97.767 64.3692 97.7172 64.3484 97.6803 64.3116C97.6435 64.2747 97.6227 64.2249 97.6225 64.1728V63.7222C97.6225 63.6131 97.7111 63.5254 97.8191 63.5254H98.2697C98.3778 63.5254 98.4665 63.614 98.4665 63.7222V64.1728C98.4666 64.1986 98.4615 64.2242 98.4516 64.2481C98.4417 64.272 98.4272 64.2937 98.409 64.312C98.3907 64.3302 98.369 64.3447 98.3451 64.3546C98.3212 64.3644 98.2956 64.3695 98.2697 64.3694ZM96.7073 64.3694H96.2567C96.2046 64.3692 96.1548 64.3484 96.1179 64.3116C96.0811 64.2747 96.0603 64.2249 96.0601 64.1728V63.7222C96.0601 63.6131 96.1487 63.5254 96.2567 63.5254H96.7073C96.8164 63.5254 96.905 63.614 96.905 63.7222V64.1728C96.9044 64.2249 96.8834 64.2748 96.8464 64.3115C96.8094 64.3483 96.7595 64.3691 96.7073 64.3694ZM95.1449 64.3694H94.6943C94.642 64.3695 94.5919 64.3488 94.5548 64.3119C94.5178 64.2751 94.4968 64.2251 94.4966 64.1728V63.7222C94.4966 63.6131 94.5852 63.5254 94.6943 63.5254H95.1449C95.2529 63.5254 95.3416 63.614 95.3416 63.7222V64.1728C95.3413 64.2249 95.3205 64.2747 95.2837 64.3116C95.2469 64.3484 95.197 64.3692 95.1449 64.3694ZM99.7758 62.6658H99.3253C99.2732 62.6656 99.2233 62.6448 99.1864 62.6079C99.1496 62.5711 99.1288 62.5211 99.1286 62.469V62.0174C99.1286 61.9095 99.2172 61.8208 99.3253 61.8208H99.7758C99.8849 61.8208 99.9726 61.9095 99.9726 62.0174V62.4681C99.9728 62.494 99.9678 62.5197 99.958 62.5437C99.9482 62.5677 99.9337 62.5895 99.9154 62.6079C99.8971 62.6263 99.8753 62.6409 99.8514 62.6508C99.8274 62.6607 99.8018 62.6658 99.7758 62.6658ZM98.2134 62.6658H97.7628C97.7107 62.6655 97.6608 62.6447 97.624 62.6079C97.5871 62.571 97.5664 62.5211 97.5662 62.469V62.0174C97.5662 61.9095 97.6548 61.8208 97.7628 61.8208H98.2134C98.3215 61.8208 98.4102 61.9095 98.4102 62.0174V62.4681C98.4104 62.494 98.4054 62.5197 98.3956 62.5437C98.3858 62.5677 98.3713 62.5895 98.353 62.6079C98.3347 62.6263 98.313 62.6409 98.289 62.6508C98.265 62.6607 98.2394 62.6658 98.2134 62.6658ZM96.651 62.6658H96.2004C96.0915 62.6658 96.0028 62.5771 96.0028 62.469V62.0174C96.0028 61.9095 96.0915 61.8208 96.2004 61.8208H96.651C96.759 61.8208 96.8477 61.9095 96.8477 62.0174V62.4681C96.8477 62.5203 96.827 62.5705 96.7902 62.6075C96.7533 62.6446 96.7033 62.6655 96.651 62.6658ZM98.2697 66.1997H97.8191C97.767 66.1994 97.7171 66.1786 97.6803 66.1418C97.6435 66.1049 97.6227 66.055 97.6225 66.0029V65.5524C97.6225 65.4434 97.7111 65.3556 97.8191 65.3556H98.2697C98.3778 65.3556 98.4665 65.4443 98.4665 65.5524V66.0029C98.4666 66.0288 98.4615 66.0544 98.4517 66.0783C98.4418 66.1022 98.4273 66.1239 98.409 66.1422C98.3907 66.1605 98.369 66.175 98.3451 66.1848C98.3212 66.1947 98.2956 66.1997 98.2697 66.1997ZM96.7073 66.1997H96.2567C96.2046 66.1994 96.1547 66.1786 96.1179 66.1418C96.0811 66.1049 96.0603 66.055 96.0601 66.0029V65.5524C96.0601 65.4434 96.1487 65.3556 96.2567 65.3556H96.7073C96.8164 65.3556 96.905 65.4443 96.905 65.5524V66.0029C96.9045 66.0551 96.8834 66.1049 96.8465 66.1418C96.8095 66.1786 96.7595 66.1994 96.7073 66.1997Z" fill="#E1E4E5"/>
<path d="M53.8507 24.6878L50.7745 27.764C50.6625 27.876 50.6625 28.0576 50.7745 28.1696C50.8865 28.2816 51.0681 28.2816 51.1801 28.1696L54.2564 25.0934C54.3684 24.9814 54.3684 24.7998 54.2564 24.6878C54.1443 24.5757 53.9627 24.5757 53.8507 24.6878Z" fill="#E1E4E5"/>
<path d="M53.5495 26.889L52.6623 27.7762C52.5503 27.8882 52.5503 28.0698 52.6623 28.1818C52.7743 28.2939 52.9559 28.2939 53.068 28.1818L53.9552 27.2946C54.0672 27.1826 54.0672 27.001 53.9552 26.889C53.8432 26.7769 53.6615 26.7769 53.5495 26.889Z" fill="#E1E4E5"/>
<path d="M39.6918 70.4182L42.768 67.342C42.88 67.23 42.88 67.0483 42.768 66.9363C42.656 66.8243 42.4744 66.8243 42.3623 66.9363L39.2861 70.0125C39.1741 70.1246 39.1741 70.3062 39.2861 70.4182C39.3981 70.5302 39.5798 70.5302 39.6918 70.4182Z" fill="#E1E4E5"/>
<path d="M39.9927 68.2155L40.8799 67.3283C40.992 67.2163 40.992 67.0347 40.8799 66.9227C40.7679 66.8106 40.5863 66.8106 40.4743 66.9227L39.5871 67.8099C39.475 67.9219 39.475 68.1035 39.5871 68.2155C39.6991 68.3276 39.8807 68.3276 39.9927 68.2155Z" fill="#E1E4E5"/>
<path d="M97.9773 27.1697L101.054 24.0935C101.166 23.9814 101.166 23.7998 101.054 23.6878C100.941 23.5758 100.76 23.5758 100.648 23.6878L97.5716 26.764C97.4596 26.876 97.4596 27.0576 97.5716 27.1697C97.6837 27.2817 97.8653 27.2817 97.9773 27.1697Z" fill="#E1E4E5"/>
<path d="M98.2785 24.967L99.1657 24.0798C99.2777 23.9678 99.2777 23.7861 99.1657 23.6741C99.0537 23.5621 98.8721 23.5621 98.76 23.6741L97.8728 24.5613C97.7608 24.6734 97.7608 24.855 97.8728 24.967C97.9848 25.079 98.1665 25.079 98.2785 24.967Z" fill="#E1E4E5"/>
<defs>
<linearGradient id="paint0_linear_6360_62776" x1="73.3737" y1="96.8983" x2="72.4418" y2="-30.0704" gradientUnits="userSpaceOnUse">
<stop stop-color="white"/>
<stop offset="1" stop-color="#EEEEEE"/>
</linearGradient>
</defs>
</svg>
