<svg width="140" height="94" viewBox="0 0 140 94" fill="none" xmlns="http://www.w3.org/2000/svg">
<g clip-path="url(#clip0_6360_62861)">
<path d="M101.8 47.5682C99.7903 48.0443 97.6643 46.3398 97.6643 46.3398C97.6643 46.3398 98.7989 43.8639 100.81 43.3892C102.82 42.913 104.945 44.6162 104.945 44.6162C104.945 44.6162 103.81 47.092 101.8 47.5682Z" fill="url(#paint0_linear_6360_62861)"/>
<path d="M100.087 25.234C97.8364 26.7843 94.3977 25.7005 94.3977 25.7005C94.3977 25.7005 94.6107 22.1036 96.8629 20.5548C99.1138 19.0044 102.551 20.0867 102.551 20.0867C102.551 20.0867 102.338 23.6836 100.087 25.234Z" fill="url(#paint1_linear_6360_62861)"/>
<path d="M37.7312 46.3651C36.8692 47.2424 35.257 47.0575 35.257 47.0575C35.257 47.0575 35.0437 45.4498 35.9066 44.5729C36.7687 43.6954 38.3801 43.8799 38.3801 43.8799C38.3801 43.8799 38.5933 45.4876 37.7312 46.3651Z" fill="url(#paint2_linear_6360_62861)"/>
<path d="M104.922 58.3334C104.02 58.3334 103.289 59.0647 103.289 59.9668C103.289 60.8688 104.02 61.6001 104.922 61.6001C105.824 61.6001 106.555 60.8688 106.555 59.9668C106.555 59.0647 105.824 58.3334 104.922 58.3334Z" fill="#00916E"/>
<path d="M44.9202 68.2892C43.6511 68.2892 42.6222 69.2848 42.6222 70.513C42.6222 71.7412 43.6511 72.7368 44.9202 72.7368C46.1894 72.7368 47.2183 71.7412 47.2183 70.513C47.2183 69.2848 46.1894 68.2892 44.9202 68.2892Z" fill="#00916E"/>
<path d="M41.7266 38.8091C41.2762 38.8091 40.9111 38.444 40.9111 37.9936C40.9111 37.5433 41.2762 37.1782 41.7266 37.1782C42.1769 37.1782 42.542 37.5433 42.542 37.9936C42.542 38.444 42.1769 38.8091 41.7266 38.8091Z" fill="#00916E"/>
<path d="M91.3121 21.4692C90.4524 21.4692 89.7555 20.7723 89.7555 19.9126C89.7555 19.0529 90.4524 18.356 91.3121 18.356C92.1718 18.356 92.8688 19.0529 92.8688 19.9126C92.8688 20.7723 92.1718 21.4692 91.3121 21.4692Z" fill="#00916E"/>
<path d="M102.667 73.111C101.893 73.111 101.267 72.4842 101.267 71.711C101.267 70.9378 101.893 70.311 102.667 70.311C103.44 70.311 104.067 70.9378 104.067 71.711C104.067 72.4842 103.44 73.111 102.667 73.111Z" fill="#E1E4E5"/>
<path d="M50.608 74.6155C50.3214 74.6155 50.0891 74.3832 50.0891 74.0966C50.0891 73.81 50.3214 73.5776 50.608 73.5776C50.8946 73.5776 51.127 73.81 51.127 74.0966C51.127 74.3832 50.8946 74.6155 50.608 74.6155Z" fill="#E1E4E5"/>
<path d="M88.3191 17.0376C87.9097 17.0376 87.5779 16.7058 87.5779 16.2964C87.5779 15.887 87.9097 15.5552 88.3191 15.5552C88.7284 15.5552 89.0603 15.887 89.0603 16.2964C89.0603 16.7058 88.7284 17.0376 88.3191 17.0376Z" fill="#E1E4E5"/>
<path d="M47.009 44.7217C47.1125 45.1082 46.8832 45.5054 46.4967 45.609C46.1103 45.7125 45.713 45.4832 45.6095 45.0967C45.5059 44.7103 45.7353 44.313 46.1217 44.2095C46.5082 44.1059 46.9054 44.3353 47.009 44.7217Z" fill="#E1E4E5"/>
<path d="M45.2292 32.3126C44.697 32.3126 44.2655 31.8811 44.2655 31.3489C44.2655 30.8167 44.697 30.3853 45.2292 30.3853C45.7614 30.3853 46.1929 30.8167 46.1929 31.3489C46.1929 31.8811 45.7614 32.3126 45.2292 32.3126Z" fill="#E1E4E5"/>
<path d="M99.2081 53.7636C98.7988 53.7636 98.4669 53.4981 98.4669 53.1706C98.4669 52.8431 98.7988 52.5776 99.2081 52.5776C99.6175 52.5776 99.9493 52.8431 99.9493 53.1706C99.9493 53.4981 99.6175 53.7636 99.2081 53.7636Z" fill="#E1E4E5"/>
<path d="M77.9692 13.2778C78.1846 14.082 77.7074 14.9086 76.9032 15.1241C76.099 15.3396 75.2724 14.8624 75.0569 14.0582C74.8414 13.254 75.3187 12.4274 76.1229 12.2119C76.9271 11.9964 77.7537 12.4736 77.9692 13.2778Z" fill="#E1E4E5"/>
<path d="M105.858 49.3109H105.877C105.992 50.9379 107.202 50.9629 107.202 50.9629C107.202 50.9629 105.868 50.989 105.868 52.8691C105.868 50.989 104.533 50.9629 104.533 50.9629C104.533 50.9629 105.743 50.9379 105.858 49.3109ZM51.1426 22.5278H51.176C51.3737 25.3751 53.4577 25.419 53.4577 25.419C53.4577 25.419 51.1597 25.4646 51.1597 28.7546C51.1597 25.4646 48.8618 25.419 48.8618 25.419C48.8618 25.419 50.9449 25.3751 51.1426 22.5278Z" fill="#E1E4E5"/>
<path fill-rule="evenodd" clip-rule="evenodd" d="M92.1505 27.8263L83.2829 18.9509C82.7008 18.3682 82.0097 17.9059 81.2489 17.5903C80.4882 17.2748 79.6727 17.1122 78.8491 17.1118H56.3601C52.8952 17.1118 50.0889 19.9207 50.0889 23.3886V67.3265C50.0889 70.7945 52.8952 73.6035 56.3601 73.6035H87.7167C91.1815 73.6035 93.9879 70.7945 93.9879 67.3265V32.2642C93.9874 30.5999 93.3266 29.0038 92.1505 27.8263Z" fill="#00916E" stroke="#E1E4E5" stroke-width="0.622222"/>
<path d="M60.2409 39.0396H79.5948M60.2409 47.8067H79.5948M60.2 56.5439H81.9777" stroke="#E1E4E5" stroke-width="3.90833" stroke-linecap="round" stroke-linejoin="round"/>
<path d="M98.5631 63.4673H75.348C71.793 63.4673 68.9111 66.3492 68.9111 69.9042C68.9111 73.4592 71.793 76.3411 75.348 76.3411H98.5631C102.118 76.3411 105 73.4592 105 69.9042C105 66.3492 102.118 63.4673 98.5631 63.4673Z" fill="white" stroke="#E1E4E5" stroke-width="0.622222"/>
<path d="M80.6243 69.9036C80.6243 67.0479 78.3093 64.7329 75.4536 64.7329C72.5979 64.7329 70.283 67.0479 70.283 69.9036C70.283 72.7593 72.5979 75.0742 75.4536 75.0742C78.3093 75.0742 80.6243 72.7593 80.6243 69.9036Z" fill="#00916E"/>
<path fill-rule="evenodd" clip-rule="evenodd" d="M77.8033 72.0728V72.4186C77.8033 72.6093 77.6504 72.7642 77.462 72.7642H73.3676C73.1794 72.7642 73.0265 72.6093 73.0265 72.4186V72.0672C73.0265 71.021 74.2064 70.3413 75.4149 70.3413C76.6234 70.3413 77.8033 71.0214 77.8033 72.0672M76.2715 67.3039C76.3878 67.4155 76.4807 67.5493 76.5446 67.6972C76.6086 67.8452 76.6424 68.0044 76.644 68.1656C76.6456 68.3268 76.6151 68.4867 76.5541 68.636C76.4932 68.7852 76.4031 68.9208 76.2891 69.0348C76.1751 69.1487 76.0395 69.2388 75.8903 69.2997C75.741 69.3606 75.5811 69.3912 75.4199 69.3895C75.2587 69.3878 75.0995 69.354 74.9515 69.29C74.8036 69.226 74.6699 69.1332 74.5582 69.0169C74.3387 68.7881 74.2176 68.4824 74.2209 68.1654C74.2241 67.8484 74.3516 67.5453 74.5758 67.3211C74.8 67.0969 75.1031 66.9696 75.4201 66.9664C75.7372 66.9632 76.0428 67.0843 76.2715 67.3039Z" fill="white"/>
<path d="M100.41 66.4214H82.3654C82.0449 66.4214 81.785 66.6812 81.785 67.0018C81.785 67.3223 82.0449 67.5821 82.3654 67.5821H100.41C100.73 67.5821 100.99 67.3223 100.99 67.0018C100.99 66.6812 100.73 66.4214 100.41 66.4214Z" fill="#E1E4E5"/>
<path d="M100.41 69.27H82.3653C82.0448 69.27 81.7849 69.5299 81.7849 69.8504C81.7849 70.1709 82.0448 70.4308 82.3653 70.4308H100.41C100.73 70.4308 100.99 70.1709 100.99 69.8504C100.99 69.5299 100.73 69.27 100.41 69.27Z" fill="#E1E4E5"/>
<path d="M100.41 72.1196H82.3653C82.0448 72.1196 81.7849 72.3795 81.7849 72.7C81.7849 73.0205 82.0448 73.2804 82.3653 73.2804H100.41C100.73 73.2804 100.99 73.0205 100.99 72.7C100.99 72.3795 100.73 72.1196 100.41 72.1196Z" fill="#E1E4E5"/>
<path d="M63.4076 20.2222H40.1925C36.6375 20.2222 33.7556 23.1041 33.7556 26.6591C33.7556 30.214 36.6375 33.0959 40.1925 33.0959H63.4076C66.9626 33.0959 69.8445 30.214 69.8445 26.6591C69.8445 23.1041 66.9626 20.2222 63.4076 20.2222Z" fill="white" stroke="#E1E4E5" stroke-width="0.622222"/>
<path d="M45.4688 26.6594C45.4688 23.8038 43.1538 21.4888 40.2981 21.4888C37.4424 21.4888 35.1274 23.8038 35.1274 26.6594C35.1274 29.5151 37.4424 31.8301 40.2981 31.8301C43.1538 31.8301 45.4688 29.5151 45.4688 26.6594Z" fill="#00916E"/>
<path fill-rule="evenodd" clip-rule="evenodd" d="M42.6477 28.8276V29.1734C42.6477 29.3642 42.4947 29.5191 42.3064 29.5191H38.212C38.0238 29.5191 37.8708 29.3642 37.8708 29.1734V28.822C37.8708 27.7759 39.0507 27.0962 40.2593 27.0962C41.4678 27.0962 42.6477 27.7762 42.6477 28.822M41.1159 24.0588C41.2322 24.1704 41.325 24.3041 41.389 24.4521C41.4529 24.6001 41.4867 24.7593 41.4884 24.9205C41.49 25.0817 41.4594 25.2416 41.3985 25.3908C41.3376 25.5401 41.2475 25.6757 41.1335 25.7896C41.0195 25.9036 40.8839 25.9937 40.7346 26.0546C40.5854 26.1155 40.4255 26.146 40.2643 26.1444C40.1031 26.1427 39.9438 26.1089 39.7959 26.0449C39.6479 25.9809 39.5142 25.8881 39.4026 25.7718C39.1831 25.543 39.062 25.2373 39.0652 24.9203C39.0685 24.6033 39.1959 24.3002 39.4201 24.076C39.6443 23.8518 39.9475 23.7245 40.2645 23.7213C40.5815 23.718 40.8872 23.8392 41.1159 24.0588Z" fill="white"/>
<path d="M65.2542 23.1763H47.2098C46.8892 23.1763 46.6294 23.4361 46.6294 23.7566C46.6294 24.0772 46.8892 24.337 47.2098 24.337H65.2542C65.5748 24.337 65.8346 24.0772 65.8346 23.7566C65.8346 23.4361 65.5748 23.1763 65.2542 23.1763Z" fill="#E1E4E5"/>
<path d="M65.254 26.0259H47.2095C46.889 26.0259 46.6292 26.2857 46.6292 26.6063C46.6292 26.9268 46.889 27.1866 47.2095 27.1866H65.254C65.5745 27.1866 65.8343 26.9268 65.8343 26.6063C65.8343 26.2857 65.5745 26.0259 65.254 26.0259Z" fill="#E1E4E5"/>
<path d="M65.2541 28.8755H47.2096C46.8891 28.8755 46.6293 29.1353 46.6293 29.4559C46.6293 29.7764 46.8891 30.0362 47.2096 30.0362H65.2541C65.5746 30.0362 65.8345 29.7764 65.8345 29.4559C65.8345 29.1353 65.5746 28.8755 65.2541 28.8755Z" fill="#E1E4E5"/>
<path d="M99.7889 28.1558H80.3445C76.7792 28.1558 73.8889 31.046 73.8889 34.6113C73.8889 38.1766 76.7792 41.0669 80.3445 41.0669H99.7889C103.354 41.0669 106.244 38.1766 106.244 34.6113C106.244 31.046 103.354 28.1558 99.7889 28.1558Z" fill="white" stroke="#E1E4E5" stroke-width="0.622222"/>
<path d="M85.6021 34.593C85.6021 31.7373 83.2871 29.4224 80.4314 29.4224C77.5757 29.4224 75.2607 31.7373 75.2607 34.593C75.2607 37.4487 77.5757 39.7637 80.4314 39.7637C83.2871 39.7637 85.6021 37.4487 85.6021 34.593Z" fill="#00916E"/>
<path fill-rule="evenodd" clip-rule="evenodd" d="M82.7812 36.7612V37.107C82.7812 37.2977 82.6283 37.4527 82.4399 37.4527H78.3455C78.1573 37.4527 78.0044 37.2977 78.0044 37.107V36.7556C78.0044 35.7095 79.1843 35.0297 80.3928 35.0297C81.6013 35.0297 82.7812 35.7098 82.7812 36.7556M81.2494 31.9924C81.3657 32.104 81.4586 32.2377 81.5225 32.3857C81.5865 32.5337 81.6203 32.6929 81.6219 32.8541C81.6235 33.0153 81.593 33.1752 81.5321 33.3244C81.4711 33.4737 81.381 33.6093 81.267 33.7232C81.153 33.8372 81.0174 33.9273 80.8682 33.9882C80.7189 34.0491 80.559 34.0796 80.3978 34.078C80.2366 34.0763 80.0774 34.0425 79.9294 33.9785C79.7815 33.9145 79.6478 33.8217 79.5362 33.7054C79.3166 33.4766 79.1955 33.1709 79.1988 32.8539C79.2021 32.5369 79.3295 32.2337 79.5537 32.0096C79.7779 31.7854 80.081 31.6581 80.398 31.6548C80.7151 31.6516 81.0207 31.7728 81.2494 31.9924Z" fill="white"/>
<path d="M100.567 31.1118H87.3446C87.0439 31.1118 86.8002 31.3556 86.8002 31.6563C86.8002 31.9569 87.0439 32.2007 87.3446 32.2007H100.567C100.868 32.2007 101.111 31.9569 101.111 31.6563C101.111 31.3556 100.868 31.1118 100.567 31.1118Z" fill="#E1E4E5"/>
<path d="M100.489 33.9106H87.4223C87.0786 33.9106 86.8 34.1892 86.8 34.5329C86.8 34.8765 87.0786 35.1551 87.4223 35.1551H100.489C100.833 35.1551 101.111 34.8765 101.111 34.5329C101.111 34.1892 100.833 33.9106 100.489 33.9106Z" fill="#E1E4E5"/>
<path d="M100.567 36.8667H87.3445C87.0438 36.8667 86.8 37.1105 86.8 37.4111C86.8 37.7118 87.0438 37.9556 87.3445 37.9556H100.567C100.867 37.9556 101.111 37.7118 101.111 37.4111C101.111 37.1105 100.867 36.8667 100.567 36.8667Z" fill="#E1E4E5"/>
<path d="M59.8111 52.5776H40.3667C36.8014 52.5776 33.9111 55.4679 33.9111 59.0332C33.9111 62.5985 36.8014 65.4887 40.3667 65.4887H59.8111C63.3764 65.4887 66.2667 62.5985 66.2667 59.0332C66.2667 55.4679 63.3764 52.5776 59.8111 52.5776Z" fill="white" stroke="#E1E4E5" stroke-width="0.622222"/>
<path d="M45.6243 59.0149C45.6243 56.1592 43.3093 53.8442 40.4536 53.8442C37.5979 53.8442 35.283 56.1592 35.283 59.0149C35.283 61.8706 37.5979 64.1856 40.4536 64.1856C43.3093 64.1856 45.6243 61.8706 45.6243 59.0149Z" fill="#00916E"/>
<path fill-rule="evenodd" clip-rule="evenodd" d="M42.8032 61.1831V61.5289C42.8032 61.7196 42.6503 61.8746 42.4619 61.8746H38.3675C38.1793 61.8746 38.0264 61.7196 38.0264 61.5289V61.1775C38.0264 60.1314 39.2063 59.4516 40.4148 59.4516C41.6233 59.4516 42.8032 60.1317 42.8032 61.1775M41.2714 56.4142C41.3877 56.5259 41.4805 56.6596 41.5445 56.8076C41.6084 56.9555 41.6422 57.1148 41.6439 57.276C41.6455 57.4372 41.615 57.5971 41.554 57.7463C41.4931 57.8956 41.403 58.0311 41.289 58.1451C41.175 58.2591 41.0394 58.3492 40.8901 58.4101C40.7409 58.471 40.581 58.5015 40.4198 58.4998C40.2586 58.4982 40.0994 58.4644 39.9514 58.4004C39.8034 58.3364 39.6697 58.2435 39.5581 58.1272C39.3386 57.8985 39.2175 57.5928 39.2208 57.2758C39.224 56.9587 39.3514 56.6556 39.5756 56.4315C39.7998 56.2073 40.103 56.0799 40.42 56.0767C40.737 56.0735 41.0427 56.1947 41.2714 56.4142Z" fill="white"/>
<path d="M60.5889 55.5337H47.3667C47.066 55.5337 46.8223 55.7774 46.8223 56.0781C46.8223 56.3788 47.066 56.6226 47.3667 56.6226H60.5889C60.8896 56.6226 61.1334 56.3788 61.1334 56.0781C61.1334 55.7774 60.8896 55.5337 60.5889 55.5337Z" fill="#E1E4E5"/>
<path d="M60.5112 58.3335H47.4445C47.1008 58.3335 46.8223 58.6121 46.8223 58.9557C46.8223 59.2994 47.1008 59.5779 47.4445 59.5779H60.5112C60.8548 59.5779 61.1334 59.2994 61.1334 58.9557C61.1334 58.6121 60.8548 58.3335 60.5112 58.3335Z" fill="#E1E4E5"/>
<path d="M60.5889 61.2896H47.3667C47.066 61.2896 46.8223 61.5333 46.8223 61.834C46.8223 62.1347 47.066 62.3784 47.3667 62.3784H60.5889C60.8896 62.3784 61.1334 62.1347 61.1334 61.834C61.1334 61.5333 60.8896 61.2896 60.5889 61.2896Z" fill="#E1E4E5"/>
</g>
<defs>
<linearGradient id="paint0_linear_6360_62861" x1="94.231" y1="48.7521" x2="111.827" y2="40.4392" gradientUnits="userSpaceOnUse">
<stop stop-color="white"/>
<stop offset="1" stop-color="#EEEEEE"/>
</linearGradient>
<linearGradient id="paint1_linear_6360_62861" x1="91.3193" y1="30.3209" x2="109.037" y2="11.6377" gradientUnits="userSpaceOnUse">
<stop stop-color="white"/>
<stop offset="1" stop-color="#EEEEEE"/>
</linearGradient>
<linearGradient id="paint2_linear_6360_62861" x1="34.2916" y1="49.3622" x2="40.5242" y2="39.592" gradientUnits="userSpaceOnUse">
<stop stop-color="white"/>
<stop offset="1" stop-color="#EEEEEE"/>
</linearGradient>
<clipPath id="clip0_6360_62861">
<rect width="140" height="93.3333" fill="white"/>
</clipPath>
</defs>
</svg>
