<svg width="140" height="94" viewBox="0 0 140 94" fill="none" xmlns="http://www.w3.org/2000/svg">
<path d="M109.744 58.4209H102.065C100.183 58.4209 98.6068 57.1403 98.6068 55.5184C98.6068 54.7075 99.0135 53.9818 99.6238 53.4695C100.234 52.9575 101.099 52.6159 102.065 52.6159H103.184C104.15 52.6159 105.015 52.2744 105.625 51.7622C106.235 51.2501 106.642 50.5244 106.642 49.7135C106.642 48.1342 105.116 46.811 103.184 46.811H79.7284C79.1156 46.811 78.7218 46.0578 78.7218 45.4451C78.7218 43.9085 77.247 42.6706 75.4161 42.6706H66.6875C66.4668 42.6706 66.2551 42.5829 66.099 42.4268C65.9429 42.2707 65.8552 42.059 65.8552 41.8383C65.8552 41.6175 65.9429 41.4058 66.099 41.2497C66.2551 41.0937 66.4668 41.006 66.6875 41.006H100.132C101.607 41.006 102.98 40.4937 103.947 39.6828C104.913 38.8718 105.523 37.7194 105.523 36.4815C105.523 33.9632 103.082 31.957 100.132 31.957H82.8585C80.1482 31.957 77.4653 29.8656 74.7549 29.8656H65.1105C63.696 29.8656 62.5494 28.719 62.5494 27.3045C62.5494 25.8902 63.696 24.7436 65.1105 24.7436H86.7063C87.7235 24.7436 88.6896 24.402 89.3507 23.8471C90.012 23.2922 90.4188 22.524 90.4188 21.6277C90.4188 19.9203 88.7405 18.5117 86.7063 18.5117H36.9178C35.9008 18.5117 34.9344 18.8532 34.2733 19.408C33.6122 19.9629 33.2053 20.7313 33.2053 21.6277C33.2053 23.335 34.8836 24.7436 36.9178 24.7436H38.1893C39.8674 24.7436 41.2915 25.8959 41.2915 27.3473C41.2915 28.0728 40.9355 28.713 40.3761 29.1827C39.8167 29.6521 39.0539 29.951 38.1893 29.951H32.0357C30.9676 29.951 29.9504 30.335 29.2385 30.9327C28.5265 31.5302 28.0688 32.3412 28.0688 33.2803C28.0688 35.1157 29.8487 36.5669 31.9848 36.5669H38.2402C40.2744 36.5669 41.9526 37.9754 41.9526 39.6828C41.9526 40.5365 41.5457 41.3048 40.8846 41.8597C40.2235 42.4145 39.308 42.756 38.2909 42.756H32.6968C31.7813 42.756 30.9676 43.0548 30.3574 43.567C29.7471 44.0791 29.3911 44.7622 29.3911 45.5305C29.3911 47.067 30.8659 48.3049 32.6968 48.3049H37.223C39.8167 48.3049 41.9018 50.0549 41.9018 52.2318C41.9018 53.2989 41.3931 54.3232 40.5287 55.0061C39.6641 55.7318 38.4943 56.1586 37.223 56.1586H30.9168C29.6454 56.1586 28.4756 56.5855 27.6619 57.3111C26.7973 57.994 26.2888 58.9757 26.2888 60.0429C26.2888 62.1771 28.3739 63.9271 30.9168 63.9271H50.3892C52.5398 63.9271 54.6522 65.1222 56.8028 65.1222H60.3494C61.7049 65.1222 62.8038 66.2211 62.8038 67.5766C62.8038 68.9319 61.7049 70.0308 60.3494 70.0308H51.717C50.5983 70.0308 49.6319 70.415 48.92 71.0125C48.208 71.6101 47.7502 72.4638 47.7502 73.3601C47.7502 75.1955 49.5302 76.6895 51.717 76.6895H104.608C105.727 76.6895 106.693 76.3052 107.405 75.7078C108.117 75.1101 108.575 74.2564 108.575 73.3601C108.575 71.5247 106.795 70.0308 104.608 70.0308H103.031C101.404 70.0308 100.132 68.921 100.132 67.5979C100.132 66.915 100.437 66.3173 100.997 65.8905C101.506 65.4637 102.268 65.1648 103.082 65.1648H109.744C110.863 65.1648 111.829 64.7808 112.541 64.1831C113.253 63.5856 113.711 62.7319 113.711 61.8356C113.711 59.9148 111.931 58.4209 109.744 58.4209Z" fill="url(#paint0_linear_6360_62700)"/>
<path d="M92.711 26.3838V70.7848C92.711 74.0238 90.0879 76.6886 86.8091 76.6886H84.8828C83.6942 76.6886 82.7105 76.0326 81.8909 75.1716C80.5792 73.7368 79.8825 71.8508 79.8825 69.8829V64.7581C79.8825 62.7082 78.202 61.0273 76.1527 61.0273H52.4221V26.3838C52.4221 24.5389 53.9386 23.022 55.7829 23.022H89.3502C91.2356 23.022 92.711 24.5389 92.711 26.3838Z" fill="#00916E"/>
<path d="M83.2222 79.6448H45.8891C41.688 79.6448 38.2666 76.267 38.2666 72.1195V67.2024C38.2666 65.0646 40.0423 63.3115 42.2078 63.3115H74.0405C76.206 63.3115 77.9816 65.0646 77.9816 67.2024V72.5472C77.9816 74.5568 78.7179 76.5662 80.1039 78.0628C80.9268 78.9607 81.9662 79.6448 83.2222 79.6448Z" fill="#00916E"/>
<path d="M61.6777 37.3339C63.0093 37.3339 64.0888 36.2544 64.0888 34.9228C64.0888 33.5912 63.0093 32.5117 61.6777 32.5117C60.3461 32.5117 59.2666 33.5912 59.2666 34.9228C59.2666 36.2544 60.3461 37.3339 61.6777 37.3339Z" fill="white"/>
<path d="M61.6777 45.1123C63.0093 45.1123 64.0888 44.0328 64.0888 42.7011C64.0888 41.3695 63.0093 40.29 61.6777 40.29C60.3461 40.29 59.2666 41.3695 59.2666 42.7011C59.2666 44.0328 60.3461 45.1123 61.6777 45.1123Z" fill="white"/>
<path d="M61.6777 52.8891C63.0093 52.8891 64.0888 51.8096 64.0888 50.478C64.0888 49.1464 63.0093 48.0669 61.6777 48.0669C60.3461 48.0669 59.2666 49.1464 59.2666 50.478C59.2666 51.8096 60.3461 52.8891 61.6777 52.8891Z" fill="white"/>
<path d="M83.7664 32.5117H69.4553C68.1237 32.5117 67.0442 33.5912 67.0442 34.9228C67.0442 36.2544 68.1237 37.3339 69.4553 37.3339H83.7664C85.098 37.3339 86.1775 36.2544 86.1775 34.9228C86.1775 33.5912 85.098 32.5117 83.7664 32.5117Z" fill="white"/>
<path d="M83.6889 40.29H69.5333C68.1587 40.29 67.0444 41.4044 67.0444 42.7789C67.0444 44.1535 68.1587 45.2678 69.5333 45.2678H83.6889C85.0635 45.2678 86.1778 44.1535 86.1778 42.7789C86.1778 41.4044 85.0635 40.29 83.6889 40.29Z" fill="white"/>
<path d="M83.7667 48.0669H69.4555C68.1239 48.0669 67.0444 49.1464 67.0444 50.478C67.0444 51.8096 68.1239 52.8891 69.4555 52.8891H83.7667C85.0983 52.8891 86.1778 51.8096 86.1778 50.478C86.1778 49.1464 85.0983 48.0669 83.7667 48.0669Z" fill="white"/>
<defs>
<linearGradient id="paint0_linear_6360_62700" x1="71.864" y1="109.307" x2="70.6701" y2="-44.7874" gradientUnits="userSpaceOnUse">
<stop stop-color="white"/>
<stop offset="1" stop-color="#EEEEEE"/>
</linearGradient>
</defs>
</svg>
