<svg width="140" height="94" viewBox="0 0 140 94" fill="none" xmlns="http://www.w3.org/2000/svg">
<g clip-path="url(#clip0_6360_62805)">
<mask id="mask0_6360_62805" style="mask-type:luminance" maskUnits="userSpaceOnUse" x="0" y="0" width="140" height="94">
<path d="M0 0H140V93.3333H0V0Z" fill="white"/>
</mask>
<g mask="url(#mask0_6360_62805)">
<path d="M24.5141 40.0915C21.9405 51.2695 40.0145 78.0495 68.6836 74.2827C82.0173 72.5304 82.0856 65.7877 93.2043 58.8179C99.8316 54.6639 108.745 52.2008 112.336 45.1126C115.438 38.9948 115.432 31.8386 112.786 26.7247C106.836 15.2241 92.4688 5.55986 74.339 18.9C56.2091 32.24 31.155 11.2631 24.5141 40.0915Z" fill="url(#paint0_linear_6360_62805)"/>
<path d="M86.5416 71.1452C93.6478 65.2992 101 59.0322 108.945 57.1038C117.14 55.1129 117.813 57.8736 117.282 61.8338C116.752 65.7939 112.116 74.2718 100.978 76.8178C89.8374 79.3646 79.8919 76.6168 86.5416 71.1452Z" fill="url(#paint1_linear_6360_62805)"/>
<path fill-rule="evenodd" clip-rule="evenodd" d="M104.22 34.5951V40.4202H104.222C103.378 40.2499 102.504 40.3067 101.689 40.5848C100.944 40.8396 100.275 41.2768 99.7415 41.8566C99.2084 42.4364 98.8289 43.1403 98.6375 43.9043C98.457 44.6103 98.4402 45.3481 98.5884 46.0616C98.7365 46.775 99.0457 47.4451 99.4923 48.0209C99.9389 48.5966 100.511 49.0627 101.165 49.3836C101.819 49.7045 102.538 49.8717 103.267 49.8724C103.588 49.8718 103.908 49.8397 104.222 49.7766V55.6016C104.222 56.1032 104.123 56.5998 103.932 57.0631C103.74 57.5264 103.458 57.9474 103.104 58.302C102.749 58.6566 102.328 58.9379 101.865 59.1298C101.401 59.3217 100.905 59.4204 100.403 59.4204H94.5778V59.4222C94.7481 58.5784 94.6914 57.7044 94.4132 56.8896C94.1584 56.1444 93.7211 55.4747 93.1413 54.9417C92.5614 54.4086 91.8574 54.0292 91.0933 53.8378C90.3874 53.6574 89.6496 53.6406 88.9362 53.7887C88.2228 53.9369 87.5526 54.246 86.9769 54.6926C86.4012 55.1392 85.935 55.7114 85.6141 56.3655C85.2932 57.0197 85.126 57.7385 85.1251 58.4671C85.1256 58.7879 85.1577 59.1077 85.221 59.4222L79.3974 59.4204C77.2887 59.4208 75.5789 57.7119 75.5782 55.6034V49.7783C75.2638 49.8415 74.9439 49.8737 74.6231 49.8742C73.8945 49.8734 73.1757 49.7061 72.5216 49.3852C71.8675 49.0643 71.2953 48.5982 70.8487 48.0225C70.4021 47.4468 70.0929 46.7767 69.9447 46.0633C69.7965 45.35 69.8132 44.6122 69.9935 43.9062C70.1849 43.1422 70.5644 42.4383 71.0975 41.8585C71.6306 41.2787 72.3002 40.8414 73.0455 40.5867C73.8603 40.3085 74.7343 40.2516 75.5782 40.4219H75.5765V34.5968C75.5765 34.0953 75.6752 33.5987 75.8672 33.1353C76.0591 32.672 76.3404 32.251 76.695 31.8963C77.0497 31.5417 77.4707 31.2604 77.9341 31.0685C78.3974 30.8766 78.894 30.7779 79.3956 30.7779H85.221C85.1577 30.4635 85.1256 30.1436 85.1251 29.8228C85.1259 29.0942 85.2931 28.3753 85.614 27.7212C85.9349 27.067 86.401 26.4948 86.9768 26.0482C87.5525 25.6016 88.2227 25.2924 88.9361 25.1443C89.6496 24.9962 90.3874 25.013 91.0933 25.1935C91.8571 25.3854 92.5609 25.7651 93.1406 26.2981C93.7204 26.831 94.1578 27.5004 94.4132 28.2453C94.6913 29.0601 94.7481 29.9341 94.5778 30.7779H100.403C101.416 30.7779 102.387 31.1803 103.104 31.8964C103.82 32.6126 104.222 33.584 104.222 34.5968M39.9612 38.0289H45.8049V38.027C45.634 38.8736 45.691 39.7504 45.9699 40.5678C46.2256 41.3155 46.6642 41.9873 47.2459 42.5221C47.8275 43.0569 48.5338 43.4376 49.3002 43.6296C50.0084 43.8106 50.7486 43.8274 51.4643 43.6788C52.18 43.5301 52.8523 43.2199 53.4298 42.7719C54.0074 42.3239 54.4749 41.7498 54.7968 41.0935C55.1187 40.4373 55.2865 39.7162 55.2873 38.9852C55.2867 38.6634 55.2544 38.3425 55.191 38.027H61.0347C61.5379 38.027 62.0361 38.1261 62.5009 38.3186C62.9657 38.5111 63.3881 38.7934 63.7438 39.1491C64.0996 39.5049 64.3818 39.9273 64.5743 40.3921C64.7668 40.857 64.8658 41.3552 64.8657 41.8583V47.7022H64.8676C64.021 47.5313 63.1441 47.5883 62.3268 47.8674C61.5792 48.1231 60.9074 48.5617 60.3726 49.1434C59.8379 49.725 59.4572 50.4313 59.2653 51.1977C59.0843 51.9059 59.0675 52.6461 59.2161 53.3618C59.3647 54.0775 59.6749 54.7497 60.1229 55.3273C60.5709 55.9049 61.1449 56.3725 61.8011 56.6945C62.4573 57.0164 63.1784 57.1842 63.9094 57.185C64.2312 57.1846 64.5521 57.1524 64.8676 57.0889L64.8657 62.931C64.8661 65.0464 63.1518 66.7617 61.0366 66.7623H55.1928C55.2563 67.0778 55.2885 67.3988 55.289 67.7205C55.2882 68.4515 55.1204 69.1726 54.7985 69.8288C54.4766 70.485 54.009 71.0591 53.4315 71.5071C52.8539 71.9551 52.1817 72.2653 51.466 72.414C50.7503 72.5626 50.0102 72.5459 49.302 72.3649C48.5355 72.1729 47.8293 71.7922 47.2476 71.2574C46.666 70.7226 46.2274 70.0508 45.9718 69.3031C45.6928 68.4857 45.6358 67.6089 45.8066 66.7623V66.7642H39.963C39.4599 66.7642 38.9617 66.6651 38.4968 66.4726C38.032 66.2801 37.6096 65.9978 37.2539 65.6421C36.8981 65.2863 36.6159 64.8639 36.4234 64.399C36.2309 63.9342 36.1319 63.436 36.132 62.9328V57.0889C35.8165 57.1524 35.4956 57.1846 35.1738 57.185C34.4428 57.1843 33.7217 57.0165 33.0654 56.6946C32.4091 56.3726 31.8351 55.905 31.3871 55.3274C30.9391 54.7498 30.6289 54.0775 30.4803 53.3618C30.3317 52.6461 30.3486 51.9059 30.5297 51.1977C30.7222 50.4315 31.1031 49.7255 31.6378 49.1439C32.1724 48.5623 32.844 48.1236 33.5913 47.8674C34.4086 47.5883 35.2854 47.5313 36.132 47.7022V41.8583C36.1319 41.3552 36.2309 40.857 36.4234 40.3921C36.6159 39.9273 36.8981 39.5049 37.2539 39.1491C37.6096 38.7933 38.032 38.5111 38.4968 38.3186C38.9617 38.126 39.4599 38.0269 39.963 38.027" fill="#00916E"/>
<path d="M18.458 73.3206C18.2421 73.0132 18.0894 63.6637 18.302 63.29C18.5157 62.9175 27.8752 60.1989 27.8752 60.1989C27.8752 60.1989 31.0437 55.036 34.0307 52.145C35.2084 51.0037 36.9299 50.0453 37.3521 50.6866C37.6139 51.0839 37.1983 52.1011 36.6104 53.1718C36.6091 53.1752 36.6073 53.1785 36.6051 53.1814C35.7866 54.6707 34.6399 56.2565 34.5319 56.4053C34.5289 56.4088 34.526 56.4123 34.5233 56.4161C34.5233 56.4161 42.2873 54.4438 43.4575 54.2317C44.6276 54.0177 46.1547 53.6772 46.3974 54.4674C46.6207 55.1932 44.6436 56.0435 44.5262 56.0937C44.6533 56.0584 47.3399 55.3164 47.7386 56.3283C48.0346 57.0809 45.2561 58.505 45.1738 58.5458C45.2431 58.5276 46.5672 58.1785 46.7072 58.808C46.937 59.8434 44.0549 61.0362 43.9373 61.0855C44.0024 61.0693 45.0733 60.8167 45.1503 61.396C45.3405 62.8307 35.4263 66.8073 32.3967 67.9262C29.3639 69.044 18.675 73.6278 18.458 73.3206ZM119.364 21.9478C119.58 22.2531 119.733 31.5438 119.52 31.9153C119.306 32.2855 109.949 34.9869 109.949 34.9869C109.949 34.9869 106.781 40.1174 103.794 42.9902C102.617 44.1245 100.895 45.0767 100.473 44.4394C100.211 44.0447 100.627 43.0339 101.215 41.9699C101.216 41.9667 101.218 41.9636 101.22 41.9603C102.039 40.4803 103.185 38.9046 103.293 38.7566C103.299 38.7492 103.302 38.746 103.302 38.746C103.302 38.746 95.5391 40.7059 94.369 40.9165C93.1991 41.1293 91.6721 41.4676 91.4296 40.6824C91.2064 39.9611 93.183 39.1163 93.3006 39.0663C93.1734 39.1013 90.4873 39.8387 90.0887 38.8333C89.7927 38.0852 92.5708 36.6702 92.6531 36.6297C92.5837 36.6479 91.2597 36.9946 91.1197 36.369C90.89 35.3402 93.7718 34.155 93.8892 34.106C93.8241 34.122 92.7535 34.3731 92.6765 33.7974C92.4865 32.3717 102.399 28.42 105.428 27.3082C108.46 26.1974 119.147 21.6424 119.364 21.9478Z" fill="#F8AE9D"/>
</g>
</g>
<defs>
<linearGradient id="paint0_linear_6360_62805" x1="39.1269" y1="112.315" x2="112.754" y2="-66.7004" gradientUnits="userSpaceOnUse">
<stop stop-color="white"/>
<stop offset="1" stop-color="#EEEEEE"/>
</linearGradient>
<linearGradient id="paint1_linear_6360_62805" x1="85.9525" y1="96.4292" x2="123.924" y2="22.5506" gradientUnits="userSpaceOnUse">
<stop stop-color="white"/>
<stop offset="1" stop-color="#EEEEEE"/>
</linearGradient>
<clipPath id="clip0_6360_62805">
<rect width="140" height="93.3333" fill="white"/>
</clipPath>
</defs>
</svg>
