<svg width="140" height="94" viewBox="0 0 140 94" fill="none" xmlns="http://www.w3.org/2000/svg">
<path d="M111.859 39.6218C114.422 31.1709 100.813 25.8005 100.813 25.8005C100.813 25.8005 84.6218 33.2683 82.0244 32.0629C79.4269 30.8575 94.6216 22.9743 94.6216 22.9743C90.2363 19.6038 74.7632 17.884 74.7632 17.884C74.7632 17.884 66.287 33.1095 64.0661 31.3016C61.8451 29.4939 72.2594 18.2024 72.2594 18.2024C66.8953 16.7326 59.3829 19.3658 59.3829 19.3658C48.7453 24.651 56.0811 38.0386 56.0811 38.0386C56.0811 38.0386 53.03 43.252 46.1951 47.1452C46.1951 47.1452 44.804 47.7833 42.9258 49.1726L44.1567 49.9429C44.4564 49.6809 44.7672 49.432 45.0885 49.1969C45.0902 49.1948 45.0925 49.1933 45.095 49.1925C45.1003 49.1892 45.1036 49.186 45.109 49.1827C45.3915 48.9917 45.6754 48.8026 45.9605 48.6155L45.9616 48.6145L45.9627 48.6134C46.7996 48.1112 47.3947 47.7273 47.8 47.4352L47.8031 47.4319C50.3769 45.8247 53.8845 43.8285 55.3625 43.8747C55.3625 43.8747 55.3458 43.5978 55.4516 43.145C55.4237 43.3777 55.3925 43.6202 55.3625 43.8747C54.6449 49.7096 64.7138 57.0547 71.3393 59.5228C77.9645 61.9908 76.4413 58.734 74.9603 54.0684C73.4792 49.4027 66.4117 45.9675 65.1144 43.6896C63.8169 41.4118 67.3357 42.1469 71.0633 44.8967C74.7887 47.6463 74.2989 52.7855 80.2451 57.343C86.1915 61.9006 98.4501 53.0193 98.4501 53.0193C93.2359 51.6439 86.9136 44.3362 87.5537 42.643C88.1949 40.9487 99.6942 48.3511 101.783 49.029C103.874 49.7082 109.295 48.0727 111.859 39.6218Z" fill="url(#paint0_linear_6360_62711)"/>
<path d="M38.6414 32.0587C38.6414 28.8282 41.2601 26.2095 44.4907 26.2095H90.6349C93.8653 26.2095 96.4841 28.8282 96.4841 32.0587V67.9666C96.4841 71.1972 93.8653 73.816 90.6349 73.816H44.4907C41.2601 73.816 38.6414 71.1972 38.6414 67.9666V32.0587Z" fill="#00916E"/>
<path d="M45.3842 32.2219C46.0572 32.2219 46.6028 31.6763 46.6028 31.0033C46.6028 30.3303 46.0572 29.7847 45.3842 29.7847C44.7111 29.7847 44.1655 30.3303 44.1655 31.0033C44.1655 31.6763 44.7111 32.2219 45.3842 32.2219Z" fill="white"/>
<path d="M49.6088 32.2219C50.2818 32.2219 50.8274 31.6763 50.8274 31.0033C50.8274 30.3303 50.2818 29.7847 49.6088 29.7847C48.9357 29.7847 48.3901 30.3303 48.3901 31.0033C48.3901 31.6763 48.9357 32.2219 49.6088 32.2219Z" fill="white"/>
<path d="M53.8334 32.2219C54.5064 32.2219 55.052 31.6763 55.052 31.0033C55.052 30.3303 54.5064 29.7847 53.8334 29.7847C53.1603 29.7847 52.6147 30.3303 52.6147 31.0033C52.6147 31.6763 53.1603 32.2219 53.8334 32.2219Z" fill="white"/>
<path d="M82.3483 58.5439H45.4655C44.7476 58.5439 44.1656 59.1259 44.1656 59.8438C44.1656 60.5616 44.7476 61.1436 45.4655 61.1436H82.3483C83.0662 61.1436 83.6481 60.5616 83.6481 59.8438C83.6481 59.1259 83.0662 58.5439 82.3483 58.5439Z" fill="white"/>
<path d="M79.5052 50.9067H45.5468C44.7841 50.9067 44.1658 51.525 44.1658 52.2878V52.2879C44.1658 53.0506 44.7841 53.6689 45.5468 53.6689H79.5052C80.2679 53.6689 80.8862 53.0506 80.8862 52.2879V52.2878C80.8862 51.525 80.2679 50.9067 79.5052 50.9067Z" fill="white"/>
<path d="M84.1356 43.1084H45.4655C44.7476 43.1084 44.1656 43.6904 44.1656 44.4082C44.1656 45.1261 44.7476 45.708 45.4655 45.708H84.1356C84.8535 45.708 85.4355 45.1261 85.4355 44.4082C85.4355 43.6904 84.8535 43.1084 84.1356 43.1084Z" fill="white"/>
<path d="M28.6452 82.2541C28.5172 81.907 30.7506 72.987 31.049 72.6865C31.3481 72.3874 40.9849 72.2018 40.9849 72.2018C40.9849 72.2018 45.3273 68.1091 48.9178 66.128C50.3338 65.3454 52.2231 64.876 52.4632 65.5933C52.6124 66.0377 51.9563 66.8975 51.122 67.7639C51.1202 67.7667 51.1172 67.7692 51.1144 67.7717C49.953 68.9768 48.4535 70.1893 48.3124 70.3032C48.3045 70.3087 48.3015 70.3112 48.3015 70.3112C48.3015 70.3112 56.2236 70.426 57.3959 70.5243C58.5688 70.6206 60.115 70.6881 60.1457 71.5008C60.1744 72.2477 58.0685 72.5488 57.9433 72.5666C58.074 72.5655 60.8304 72.5487 60.9538 73.6119C61.0452 74.4027 58.0273 75.0438 57.9382 75.0613C58.0093 75.062 59.3635 75.0694 59.3371 75.7033C59.2932 76.7455 56.235 77.1405 56.1101 77.1571C56.1765 77.1587 57.2641 77.1928 57.1903 77.7627C57.007 79.1742 46.5198 80.4128 43.3396 80.6998C40.1565 80.9849 28.7743 82.6016 28.6452 82.2541Z" fill="#F8AE9D"/>
<path d="M101.684 63.0938H112.57V73.8174H101.684V63.0938Z" fill="url(#paint1_linear_6360_62711)"/>
<path d="M113.707 60.3306H106.071C105.173 60.3306 104.446 61.058 104.446 61.9553V69.4295C104.446 70.3268 105.173 71.0542 106.071 71.0542H113.707C114.605 71.0542 115.332 70.3268 115.332 69.4295V61.9553C115.332 61.058 114.605 60.3306 113.707 60.3306Z" fill="#00916E"/>
<path d="M112.493 31.0066L111.013 29.5258C110.378 28.8913 109.349 28.8913 108.715 29.5258L107.234 31.0066C106.599 31.6411 106.599 32.6699 107.234 33.3044L108.715 34.7851C109.349 35.4196 110.378 35.4196 111.013 34.7851L112.493 33.3044C113.128 32.6699 113.128 31.6411 112.493 31.0066Z" fill="#00916E"/>
<path d="M102.902 35.9588C103.575 35.9588 104.121 36.5043 104.121 37.1774C104.121 37.8504 103.575 38.396 102.902 38.396C102.229 38.396 101.684 37.8504 101.684 37.1774C101.684 36.5043 102.229 35.9588 102.902 35.9588Z" fill="#E1E4E5"/>
<path d="M32.2872 65.9487C32.2872 65.9487 34.4163 56.0797 31.5175 48.7637C31.1325 47.7917 29.7358 47.8489 29.416 48.8468C29.4107 48.8633 29.4051 48.8804 29.3999 48.8978C28.8824 50.6105 31.8532 59.6011 32.2872 65.9487ZM31.2347 68.8649C31.2347 68.8649 30.4807 55.361 24.0386 47.2981C23.6459 46.8065 22.9254 46.6899 22.4191 47.0665C22.0897 47.3121 21.8191 47.7788 21.7965 48.6446C21.7374 50.9546 28.5198 61.1177 31.2347 68.8649Z" fill="#00916E"/>
<path d="M27.5114 44.4083L25.4805 42.4585L27.5114 40.5088L29.5425 42.4585L27.5114 44.4083ZM104.039 57.0817L102.008 55.0507L104.039 53.0196L106.07 55.0507L104.039 57.0817Z" stroke="#E1E4E5" stroke-width="5.313" stroke-linecap="round" stroke-linejoin="round"/>
<path d="M49.7575 20.4173C49.0811 21.4018 49.5565 22.9038 49.5565 22.9038C49.5565 22.9038 51.1282 22.809 51.8039 21.8238C52.4803 20.8395 52.0055 19.3379 52.0055 19.3379C52.0055 19.3379 50.4338 19.4329 49.7575 20.4173Z" fill="#E1E4E5"/>
<path d="M119.645 52.9402C116.437 56.2058 110.437 55.5173 110.437 55.5173C110.437 55.5173 109.643 49.5343 112.854 46.2709C116.063 43.0055 122.059 43.692 122.059 43.692C122.059 43.692 122.853 49.6748 119.645 52.9402Z" fill="url(#paint2_linear_6360_62711)"/>
<path d="M101.771 21.5622C100.798 22.5526 98.9788 22.3437 98.9788 22.3437C98.9788 22.3437 98.738 20.5291 99.7119 19.5392C100.685 18.5487 102.504 18.757 102.504 18.757C102.504 18.757 102.745 20.5717 101.771 21.5622Z" fill="url(#paint3_linear_6360_62711)"/>
<path d="M34.9732 33.9608C36.4012 36.4835 35.7236 40.3061 35.7236 40.3061C35.7236 40.3061 31.6372 39.1819 30.209 36.6591C28.781 34.1365 28.6897 31.4884 30.0043 30.7427C31.3209 29.9964 33.5452 31.4382 34.9732 33.9608Z" fill="url(#paint4_linear_6360_62711)"/>
<path d="M108.283 42.4575H108.244C108.014 45.7267 105.583 45.7769 105.583 45.7769C105.583 45.7769 108.263 45.8293 108.263 49.6067C108.263 45.8293 110.944 45.7769 110.944 45.7769C110.944 45.7769 108.514 45.7267 108.283 42.4575Z" fill="#E1E4E5"/>
<defs>
<linearGradient id="paint0_linear_6360_62711" x1="30.9646" y1="84.1634" x2="142.975" y2="-26.2039" gradientUnits="userSpaceOnUse">
<stop stop-color="white"/>
<stop offset="1" stop-color="#EEEEEE"/>
</linearGradient>
<linearGradient id="paint1_linear_6360_62711" x1="107.359" y1="79.8297" x2="107.033" y2="51.4282" gradientUnits="userSpaceOnUse">
<stop stop-color="white"/>
<stop offset="1" stop-color="#EEEEEE"/>
</linearGradient>
<linearGradient id="paint2_linear_6360_62711" x1="106.844" y1="64.0943" x2="130.039" y2="27.7348" gradientUnits="userSpaceOnUse">
<stop stop-color="white"/>
<stop offset="1" stop-color="#EEEEEE"/>
</linearGradient>
<linearGradient id="paint3_linear_6360_62711" x1="97.8889" y1="24.9452" x2="104.924" y2="13.9171" gradientUnits="userSpaceOnUse">
<stop stop-color="white"/>
<stop offset="1" stop-color="#EEEEEE"/>
</linearGradient>
<linearGradient id="paint4_linear_6360_62711" x1="38.4745" y1="33.7591" x2="23.6735" y2="37.8245" gradientUnits="userSpaceOnUse">
<stop stop-color="white"/>
<stop offset="1" stop-color="#EEEEEE"/>
</linearGradient>
</defs>
</svg>
