<svg width="140" height="94" viewBox="0 0 140 94" fill="none" xmlns="http://www.w3.org/2000/svg">
<g clip-path="url(#clip0_6360_62904)">
<path d="M106.023 54.1079C106.549 63.801 87.5984 83.5108 64.2403 76.2156C53.3766 72.8223 54.2969 67.1904 46.0361 59.7678C41.1123 55.3439 34.0377 51.9985 32.07 45.568C30.3703 40.0175 31.4127 34.0516 34.3595 30.1711C40.9871 21.4442 54.3671 15.4682 67.5506 29.2184C80.734 42.9684 104.664 29.1087 106.023 54.1079Z" fill="url(#paint0_linear_6360_62904)"/>
<path d="M100.463 32.4412C98.6887 35.6085 94.8018 36.0437 88.5749 35.4419C83.8919 34.9883 79.6213 34.6373 74.9379 32.0839C71.6597 30.2979 69.0649 27.8815 67.171 25.5345C65.1187 22.9921 62.2542 20.0906 63.6584 17.2078C65.5882 13.2478 76.7482 9.91271 87.5851 15.3666C99.4893 21.3597 102.199 29.3456 100.463 32.4412Z" fill="url(#paint1_linear_6360_62904)"/>
<path d="M53.4153 74.1139C48.7961 67.6515 44.0654 60.7831 37.8718 57.4002C31.4834 53.9091 30.3052 56.0607 29.863 59.4814C29.4207 62.902 31.3918 71.007 40.1102 75.6184C48.8308 80.2311 57.7376 80.162 53.4153 74.1139Z" fill="url(#paint2_linear_6360_62904)"/>
<path d="M107.002 33.5805C105.986 31.7053 107.112 29.1274 107.112 29.1274C107.112 29.1274 109.885 29.5912 110.9 31.4673C111.916 33.3424 110.791 35.9193 110.791 35.9193C110.791 35.9193 108.018 35.4556 107.002 33.5805Z" fill="url(#paint3_linear_6360_62904)"/>
<path d="M53.8166 18.2654C56.0014 19.7703 59.3392 18.7184 59.3392 18.7184C59.3392 18.7184 59.1324 15.227 56.9463 13.7235C54.7615 12.2187 51.4253 13.2693 51.4253 13.2693C51.4253 13.2693 51.6319 16.7606 53.8166 18.2654Z" fill="url(#paint4_linear_6360_62904)"/>
<path d="M87.8956 25.5813C90.264 27.992 94.6932 27.4838 94.6932 27.4838C94.6932 27.4838 95.2791 23.0669 92.9085 20.6578C90.54 18.2472 86.1132 18.7538 86.1132 18.7538C86.1132 18.7538 85.5271 23.1707 87.8956 25.5813Z" fill="url(#paint5_linear_6360_62904)"/>
<path d="M98.0862 56.7173C97.114 56.7173 96.3259 57.4711 96.3259 58.4009C96.3259 59.3307 97.114 60.0845 98.0862 60.0845C99.0583 60.0845 99.8464 59.3307 99.8464 58.4009C99.8464 57.4711 99.0583 56.7173 98.0862 56.7173Z" fill="#00916E"/>
<path d="M71.5557 69.3277C70.5248 69.3277 69.689 70.1634 69.689 71.1944C69.689 72.2253 70.5248 73.061 71.5557 73.061C72.5866 73.061 73.4224 72.2253 73.4224 71.1944C73.4224 70.1634 72.5866 69.3277 71.5557 69.3277Z" fill="#00916E"/>
<path d="M41.0572 65.2447C39.747 65.2447 38.6848 66.2726 38.6848 67.5406C38.6848 68.8085 39.747 69.8364 41.0572 69.8364C42.3674 69.8364 43.4296 68.8085 43.4296 67.5406C43.4296 66.2726 42.3674 65.2447 41.0572 65.2447Z" fill="#00916E"/>
<path d="M34.8726 39.5748C34.4077 39.5748 34.0307 39.1979 34.0307 38.733C34.0307 38.268 34.4077 37.8911 34.8726 37.8911C35.3376 37.8911 35.7145 38.268 35.7145 38.733C35.7145 39.1979 35.3376 39.5748 34.8726 39.5748Z" fill="#00916E"/>
<path d="M76.5849 22.1426C75.6973 22.1426 74.9777 21.4231 74.9777 20.5354C74.9777 19.6478 75.6973 18.9282 76.5849 18.9282C77.4726 18.9282 78.1921 19.6478 78.1921 20.5354C78.1921 21.4231 77.4726 22.1426 76.5849 22.1426Z" fill="#00916E"/>
<path d="M96.0967 74.6253C95.209 74.6253 94.4895 73.94 94.4895 73.0946C94.4895 72.2493 95.209 71.564 96.0967 71.564C96.9843 71.564 97.7039 72.2493 97.7039 73.0946C97.7039 73.94 96.9843 74.6253 96.0967 74.6253Z" fill="#E1E4E5"/>
<path d="M26.7282 54.5003C25.7984 54.5003 25.0446 53.815 25.0446 52.9696C25.0446 52.1243 25.7984 51.439 26.7282 51.439C27.658 51.439 28.4117 52.1243 28.4117 52.9696C28.4117 53.815 27.658 54.5003 26.7282 54.5003Z" fill="#E1E4E5"/>
<path d="M47.0963 74.7018C46.4744 74.7018 45.9703 74.1977 45.9703 73.5758C45.9703 72.9539 46.4744 72.4497 47.0963 72.4497C47.7183 72.4497 48.2224 72.9539 48.2224 73.5758C48.2224 74.1977 47.7183 74.7018 47.0963 74.7018Z" fill="#E1E4E5"/>
<path d="M86.3772 21.2069C85.9546 21.2069 85.6119 20.8643 85.6119 20.4416C85.6119 20.0189 85.9546 19.6763 86.3772 19.6763C86.7999 19.6763 87.1426 20.0189 87.1426 20.4416C87.1426 20.8643 86.7999 21.2069 86.3772 21.2069Z" fill="#E1E4E5"/>
<path d="M38.2366 47.1834C38.3435 47.5824 38.1067 47.9925 37.7077 48.0994C37.3087 48.2063 36.8986 47.9696 36.7917 47.5706C36.6848 47.1716 36.9216 46.7615 37.3206 46.6546C37.7196 46.5477 38.1297 46.7844 38.2366 47.1834Z" fill="#E1E4E5"/>
<path d="M38.3931 31.463C37.8436 31.463 37.3982 31.0176 37.3982 30.4681C37.3982 29.9186 37.8436 29.4731 38.3931 29.4731C38.9426 29.4731 39.3881 29.9186 39.3881 30.4681C39.3881 31.0176 38.9426 31.463 38.3931 31.463Z" fill="#E1E4E5"/>
<path d="M99.2344 48.7582C98.8117 48.7582 98.4691 48.4841 98.4691 48.146C98.4691 47.8078 98.8117 47.5337 99.2344 47.5337C99.6571 47.5337 99.9998 47.8078 99.9998 48.146C99.9998 48.4841 99.6571 48.7582 99.2344 48.7582Z" fill="#E1E4E5"/>
<path d="M68.2845 13.9195C68.4873 14.676 68.0383 15.4537 67.2817 15.6564C66.5252 15.8591 65.7475 15.4101 65.5448 14.6536C65.3421 13.897 65.791 13.1194 66.5476 12.9166C67.3042 12.7139 68.0818 13.1629 68.2845 13.9195Z" fill="#E1E4E5"/>
<path d="M110.244 47.8393H110.264C110.383 49.519 111.632 49.5448 111.632 49.5448C111.632 49.5448 110.255 49.5717 110.255 51.5126C110.255 49.5717 108.877 49.5448 108.877 49.5448C108.877 49.5448 110.126 49.519 110.244 47.8393ZM108.878 56.7276H108.894C108.987 58.0516 109.972 58.072 109.972 58.072C109.972 58.072 108.886 58.0932 108.886 59.6232C108.886 58.0932 107.8 58.072 107.8 58.072C107.8 58.072 108.784 58.0516 108.878 56.7276ZM28.3851 23.5942H28.4112C28.566 25.8224 30.1969 25.8568 30.1969 25.8568C30.1969 25.8568 28.3985 25.8924 28.3985 28.4672C28.3985 25.8924 26.6001 25.8568 26.6001 25.8568C26.6001 25.8568 28.2303 25.8224 28.3851 23.5942Z" fill="#E1E4E5"/>
<path d="M114.955 82.1406H93.7414L91.9814 77.4066C91.3578 75.7299 90.0824 74.3815 88.4513 73.6439C86.9148 72.9495 84.847 71.6882 82.8429 69.4403C78.9421 65.0654 76.8723 60.3726 76.8723 60.3726L90.0194 60.3081C90.0194 60.3081 88.8362 52.9598 95.3705 43.2007C96.0686 42.1552 96.3891 40.9028 96.2791 39.6505L95.6597 32.5327C95.6597 32.5327 91.2192 27.5742 93.9434 21.4233C93.9434 21.4233 96.5484 17.8193 97.5821 19.1385C97.5821 19.1385 105.451 37.8622 106.167 40.6462C106.884 43.4302 107.839 45.1803 106.884 53.93C106.631 56.2465 106.54 58.1779 106.543 59.7666C106.55 62.816 107.23 65.8261 108.536 68.5819L114.955 82.1406Z" fill="#F8AE9D"/>
<path d="M31.0825 58.0733V29.9528C31.0825 27.8587 32.7785 26.1606 34.8715 26.1606H92.2961C94.4058 26.1606 96.0851 27.8766 96.0851 29.9528V58.0733C96.0851 60.1668 94.3897 61.8653 92.2961 61.8653H34.8709C32.7596 61.8653 31.0825 60.1472 31.0825 58.0733Z" fill="#00916E"/>
<path fill-rule="evenodd" clip-rule="evenodd" d="M51.1504 48.5225V49.2524C51.1504 49.6555 50.8277 49.9824 50.4301 49.9824H41.7863C41.3887 49.9824 41.0659 49.6555 41.0659 49.2524V48.5109C41.0659 46.3021 43.5568 44.8671 46.1081 44.8671C48.6595 44.8671 51.1504 46.3029 51.1504 48.5109M47.9167 38.4547C48.9156 39.4535 48.9156 41.0728 47.9167 42.0717C46.9179 43.0706 45.2984 43.0706 44.2996 42.0717C43.3008 41.0728 43.3008 39.4535 44.2996 38.4547C45.2984 37.4559 46.9179 37.4559 47.9167 38.4547Z" fill="white"/>
<path d="M88.8576 37.6724H56.372C55.795 37.6724 55.3271 38.1402 55.3271 38.7172C55.3271 39.2943 55.795 39.7621 56.372 39.7621H88.8576C89.4347 39.7621 89.9025 39.2943 89.9025 38.7172C89.9025 38.1402 89.4347 37.6724 88.8576 37.6724Z" fill="white"/>
<path d="M88.8576 42.8013H56.372C55.795 42.8013 55.3271 43.2691 55.3271 43.8461C55.3271 44.4232 55.795 44.891 56.372 44.891H88.8576C89.4347 44.891 89.9025 44.4232 89.9025 43.8461C89.9025 43.2691 89.4347 42.8013 88.8576 42.8013Z" fill="white"/>
<path d="M88.8577 47.9312H56.3721C55.7951 47.9312 55.3273 48.399 55.3273 48.976C55.3273 49.5531 55.7951 50.0209 56.3721 50.0209H88.8577C89.4348 50.0209 89.9026 49.5531 89.9026 48.976C89.9026 48.399 89.4348 47.9312 88.8577 47.9312Z" fill="white"/>
<path d="M96.668 36.8275C96.668 36.8275 96.4987 37.4568 96.1153 37.7672L95.66 32.5323C95.66 32.5323 92.3933 28.8846 93.1826 23.9658C93.453 22.2818 94.2912 20.7321 95.5729 19.6061C96.3049 18.9633 97.1088 18.5338 97.5823 19.1386C97.5823 19.1386 101.283 27.9435 103.839 34.3751L96.668 36.8275Z" fill="#F8AE9D"/>
</g>
<defs>
<linearGradient id="paint0_linear_6360_62904" x1="83.373" y1="112.21" x2="47.9245" y2="-47.7214" gradientUnits="userSpaceOnUse">
<stop stop-color="white"/>
<stop offset="1" stop-color="#EEEEEE"/>
</linearGradient>
<linearGradient id="paint1_linear_6360_62904" x1="88.5077" y1="52.9684" x2="72.6893" y2="-18.1128" gradientUnits="userSpaceOnUse">
<stop stop-color="white"/>
<stop offset="1" stop-color="#EEEEEE"/>
</linearGradient>
<linearGradient id="paint2_linear_6360_62904" x1="48.2574" y1="95.3281" x2="33.102" y2="25.2418" gradientUnits="userSpaceOnUse">
<stop stop-color="white"/>
<stop offset="1" stop-color="#EEEEEE"/>
</linearGradient>
<linearGradient id="paint3_linear_6360_62904" x1="103.783" y1="26.3553" x2="116.808" y2="41.6534" gradientUnits="userSpaceOnUse">
<stop stop-color="white"/>
<stop offset="1" stop-color="#EEEEEE"/>
</linearGradient>
<linearGradient id="paint4_linear_6360_62904" x1="62.3272" y1="23.2029" x2="45.1293" y2="5.06842" gradientUnits="userSpaceOnUse">
<stop stop-color="white"/>
<stop offset="1" stop-color="#EEEEEE"/>
</linearGradient>
<linearGradient id="paint5_linear_6360_62904" x1="97.3454" y1="33.8155" x2="80.2226" y2="6.97394" gradientUnits="userSpaceOnUse">
<stop stop-color="white"/>
<stop offset="1" stop-color="#EEEEEE"/>
</linearGradient>
<clipPath id="clip0_6360_62904">
<rect width="140" height="93.3333" fill="white"/>
</clipPath>
</defs>
</svg>
