<svg width="140" height="94" viewBox="0 0 140 94" fill="none" xmlns="http://www.w3.org/2000/svg">
<g clip-path="url(#clip0_6360_62815)">
<mask id="mask0_6360_62815" style="mask-type:luminance" maskUnits="userSpaceOnUse" x="0" y="0" width="140" height="94">
<path d="M0 0H140V93.3333H0V0Z" fill="white"/>
</mask>
<g mask="url(#mask0_6360_62815)">
<path d="M95.1309 20.3716H32.8383C29.9149 20.3716 27.5449 22.7415 27.5449 25.665V63.9662C27.5449 66.8896 29.9149 69.2596 32.8383 69.2596H95.1309C98.0543 69.2596 100.424 66.8896 100.424 63.9662V25.665C100.424 22.7415 98.0543 20.3716 95.1309 20.3716Z" fill="white" stroke="#E1E4E5" stroke-width="0.460289"/>
<path d="M33.264 25.4086C33.8564 25.4086 34.3367 24.9283 34.3367 24.3359C34.3367 23.7435 33.8564 23.2632 33.264 23.2632C32.6716 23.2632 32.1913 23.7435 32.1913 24.3359C32.1913 24.9283 32.6716 25.4086 33.264 25.4086Z" fill="#E1E4E5"/>
<path d="M36.9699 25.4086C37.5624 25.4086 38.0426 24.9283 38.0426 24.3359C38.0426 23.7435 37.5624 23.2632 36.9699 23.2632C36.3775 23.2632 35.8972 23.7435 35.8972 24.3359C35.8972 24.9283 36.3775 25.4086 36.9699 25.4086Z" fill="#E1E4E5"/>
<path d="M40.6762 25.4086C41.2687 25.4086 41.7489 24.9283 41.7489 24.3359C41.7489 23.7435 41.2687 23.2632 40.6762 23.2632C40.0838 23.2632 39.6035 23.7435 39.6035 24.3359C39.6035 24.9283 40.0838 25.4086 40.6762 25.4086Z" fill="#E1E4E5"/>
<path d="M114.781 42.95C113.924 33.6868 98.5138 33.8539 98.5138 33.8539C98.5138 33.8539 85.6842 47.5717 82.6713 47.4276C79.6583 47.2834 91.3506 33.5561 91.3506 33.5561C85.7332 32.0101 69.9543 36.479 69.9543 36.479C69.9543 36.479 67.7334 54.7006 64.8485 53.8193C61.9634 52.9379 67.6381 37.7845 67.6381 37.7845C61.8209 38.4815 55.5379 44.0348 55.5379 44.0348C47.259 53.4172 59.7346 63.5642 59.7346 63.5642C59.7346 63.5642 58.829 69.8625 53.7074 76.3761C53.7074 76.3761 52.6038 77.5513 51.3232 79.653L52.8301 79.9154C53.0184 79.5407 53.2229 79.1744 53.4428 78.8173C53.4441 78.8144 53.4447 78.8128 53.4474 78.8105C53.4514 78.8052 53.4533 78.8007 53.4572 78.7954C53.6003 78.5807 53.8078 78.2743 54.0627 77.9038L54.0634 77.9022L54.064 77.9008C54.6809 77.0785 55.109 76.4674 55.3884 76.0215L55.3902 76.017C57.2627 73.4264 59.8917 70.0854 61.3521 69.5433C61.3521 69.5433 61.2258 69.2798 61.1491 68.7961C61.2142 69.0343 61.2802 69.2832 61.3521 69.5433C62.97 75.5211 75.7114 78.687 83.1557 78.4628C90.5999 78.2387 87.82 75.6664 84.5216 71.7029C81.223 67.7393 72.9632 67.1958 70.7926 65.4887C68.6218 63.7818 72.347 63.1013 77.0759 64.3029C81.8028 65.5057 83.3668 70.714 90.9786 72.7981C98.5904 74.8823 107.022 61.3475 107.022 61.3475C101.388 62.0772 92.3171 57.4594 92.269 55.5531C92.2214 53.6454 106.381 56.2988 108.688 56.1307C110.998 55.9624 115.637 52.2132 114.781 42.95Z" fill="url(#paint0_linear_6360_62815)"/>
<path d="M35.7518 53.1518C37.8203 49.8034 43.6276 52.7679 43.6276 52.7679C43.6276 52.7679 45.906 60.3806 47.0747 60.8931C48.2434 61.4057 46.3976 54.0036 46.3976 54.0036C48.8169 54.4752 53.954 59.1389 53.954 59.1389C53.954 59.1389 51.3651 66.4609 52.6242 66.6702C53.8831 66.8792 54.5859 60.0696 54.5859 60.0696C56.6587 61.4289 57.9938 64.7158 57.9938 64.7158C59.3641 69.8292 52.7271 71.325 52.7271 71.325C52.7271 71.325 51.8845 73.8819 52.5988 77.3139C52.5988 77.3139 52.7957 77.9669 52.8852 79.0043L52.2648 78.82C52.264 78.6426 52.2555 78.4653 52.2395 78.2886C52.2395 78.2872 52.2396 78.2866 52.239 78.2852C52.2385 78.2824 52.2387 78.2804 52.2381 78.2776C52.2242 78.1694 52.2034 78.0142 52.1765 77.8258L52.1766 77.825V77.8244C52.0976 77.3967 52.0505 77.0846 52.0287 76.8631L52.0289 76.8611C51.807 75.527 51.4399 73.7663 50.9887 73.2859C50.9887 73.2859 51.0862 73.2099 51.2063 73.0409C51.1367 73.119 51.0649 73.2008 50.9887 73.2859C49.2503 75.2462 43.8269 74.0471 41.0485 72.5606C38.2701 71.0743 39.8078 70.623 41.8036 69.7422C43.7995 68.8615 47.0313 70.2106 48.1751 69.9725C49.3189 69.7343 48.0357 68.7753 46.0177 68.3402C44.0003 67.9061 42.4273 69.5851 39.151 68.9417C35.8747 68.2984 35.2281 61.583 35.2281 61.583C37.2253 62.92 41.5315 62.878 41.9086 62.165C42.2858 61.4511 36.4213 59.7907 35.579 59.2928C34.7354 58.7941 33.6834 56.5003 35.7518 53.1518Z" fill="url(#paint1_linear_6360_62815)"/>
<path d="M67.002 47.295C67.6612 48.3292 69.3834 49.5343 70.6051 49.5178C74.7664 49.4415 76.1363 46.6069 76.5854 45.5747C76.501 45.5542 76.3589 45.5377 76.258 45.5253C75.4916 45.4141 74.7088 44.656 74.4801 43.8011C74.1855 42.6886 73.8229 40.5131 73.8662 39.1309L68.6026 42.0438C68.6109 42.4434 68.6376 42.8802 68.6746 43.3211C68.7016 43.5889 68.7283 43.8526 68.7591 44.108C68.788 44.3532 68.821 44.5859 68.8518 44.8002C68.9487 45.5212 68.6274 46.236 68.0196 46.6336L67.002 47.295Z" fill="#F8AE9D"/>
<path d="M66.5491 35.9636C66.8335 36.7095 66.714 37.5561 66.4255 38.2999C66.2215 38.8252 65.7684 38.3616 65.2039 38.3719C64.3304 38.3863 63.6485 37.4777 63.1211 35.0696C62.7853 33.302 62.7008 32.4059 62.7688 32.2349C63.0099 31.6229 63.8051 31.2955 64.4602 31.2378" fill="#12362E"/>
<path d="M65.2199 30.668C63.8437 32.3263 63.3431 36.9925 64.5051 40.2433C65.3311 42.5547 66.2912 44.0463 67.4118 43.9989C69.1135 43.9269 72.4117 42.528 73.485 41.3599C75.4195 39.2566 74.857 35.1322 74.4574 32.5365C74.0948 30.1778 72.9905 27.1143 70.0261 27.6973C68.0773 28.0784 66.4539 29.1785 65.2199 30.668Z" fill="#F8AE9D"/>
<path d="M73.0063 32.4991C72.7011 32.8913 72.163 32.9778 71.7197 33.0552C71.1237 33.1595 70.8289 33.3766 70.5195 33.9593C70.3237 34.3314 70.1279 34.7391 69.7774 34.9407C69.4924 35.1053 69.5033 34.685 69.4574 34.3593C69.4532 34.3309 69.4474 34.3027 69.44 34.275C69.3708 34.015 69.0939 34.0597 69.0124 34.316C68.9382 34.5464 68.7794 34.7413 68.5773 34.8499C68.5443 34.8676 68.5093 34.8832 68.4741 34.8765C68.4267 34.87 68.3897 34.8256 68.3587 34.7856C68.2939 34.702 68.2293 34.5957 68.1627 34.4831C67.9439 34.1136 67.5309 34.2465 67.2865 34.5996C67.134 34.8189 66.9525 35.045 66.703 35.0958C66.6226 35.1136 66.5216 35.1003 66.4844 35.0227C66.437 34.9275 66.5112 34.8322 66.4989 34.7348C66.4886 34.6439 66.4494 34.604 66.406 34.5265C66.2359 34.225 65.8477 34.2143 65.6087 34.4644C65.4421 34.6383 65.2686 34.8054 65.0885 34.9652C65.0123 35.0316 64.9009 35.0982 64.8247 35.0316C64.7834 34.9961 64.773 34.9364 64.7648 34.8787C64.7215 34.5974 64.6803 34.316 64.6371 34.0346C64.6122 33.8774 64.5277 33.6712 64.3834 33.7111C64.3134 33.7311 64.272 33.8042 64.2329 33.8707C64.1855 33.9548 63.338 34.9141 63.3215 34.841C63.1895 34.2961 62.9194 33.7997 62.7875 33.2547C61.9338 29.7474 65.7216 26.927 68.6145 26.9114C69.2577 26.9069 69.8454 26.9173 70.4701 27.0659C71.1362 27.2253 71.8393 27.4786 72.4433 27.8353C73.2908 28.3338 73.9321 29.2401 73.7671 30.3212" fill="#12362E"/>
<path d="M71.6439 31.296C71.2236 31.7719 71.1124 32.4414 71.0733 33.0739C71.0156 34.0277 71.0939 35.0186 71.5347 35.8653C71.6604 36.1063 71.7531 37.2991 71.9468 37.2331C72.0085 37.2126 71.9983 36.2876 72.161 35.7891C72.4124 35.0165 73.5702 34.722 74.0913 35.2101C74.9237 35.9868 74.4354 36.9304 74.1593 37.5175C73.9945 37.8718 73.7329 38.2694 73.6875 38.6443C73.6319 39.1244 73.6154 40.8734 73.9286 41.2813C74.1902 41.6232 74.4683 39.971 74.7053 39.6456C76.4584 37.2208 78.1395 31.0467 75.1461 29.7077C74.6908 29.5037 73.2858 29.3986 72.8594 29.6582M60.5604 80.3757C60.3873 80.4046 60.2123 80.4293 60.0309 80.4355C59.0668 80.4663 58.1356 80.2542 57.1942 80.0935C56.366 79.9513 56.1416 79.873 56.1581 78.8739C56.3023 70.9611 57.4661 63.0689 59.5593 55.4362C59.8785 54.2702 60.2266 53.0959 60.8386 52.0535C61.883 50.2757 64.281 48.741 66.1206 47.8798C66.3802 47.7582 67.4556 48.4421 67.7172 48.3247C67.9459 48.2217 68.1478 48.061 68.3785 47.9601C69.0542 47.6654 69.5074 48.2814 70.0719 48.539C70.3645 48.6708 70.6899 48.7553 71.0113 48.741C71.2729 48.7305 71.5098 48.572 71.7488 48.6955C72.8241 49.2518 75.4941 45.1234 75.4941 45.1234L76.6539 46.3284L80.0386 49.8739L88.4974 61.5279C88.4974 61.5279 90.0322 71.0786 91.087 77.3392C91.2702 78.4186 91.9954 80.7527 92.1396 81.5706C92.1088 81.3934 84.919 81.346 84.5317 81.346H69.8782C69.0563 81.346 66.8458 81.6941 66.269 81.0906C65.5583 80.3489 64.7362 76.9456 64.6929 75.9918C64.5507 72.7842 64.7713 69.6014 64.8146 66.3753C64.7959 67.6876 64.419 68.8742 64.2583 70.1597C64.0502 71.814 63.7535 73.4662 63.4858 75.1121C63.2715 76.4348 63.0655 77.7614 62.9006 79.0923C62.8266 79.6918 62.9213 80.0482 62.4145 80.2831C61.9881 80.4788 61.059 80.2912 60.5604 80.3757Z" fill="#12362E"/>
<path d="M64.1299 77.636C64.5213 77.4753 66.9378 76.876 68.0275 76.6493C68.5982 76.5319 71.1858 75.8604 71.7851 75.8604C72.3846 75.8604 73.2005 76.7173 73.2005 76.7173L72.9841 79.6652C72.4073 79.6077 71.6348 79.9064 71.2208 79.9641C70.8067 80.0216 69.3995 80.0299 68.5343 79.5952C68.4848 79.5705 68.4396 79.5437 68.3943 79.517C68.0462 79.8259 67.6094 80.1268 67.1253 80.1515C67.1253 80.1515 66.7462 80.1123 66.7832 79.9599C66.7997 79.8857 67.0511 79.5025 67.3025 79.1276C66.9316 79.5045 66.3259 80.1165 65.6276 80.1515C65.6276 80.1515 65.2485 80.1123 65.2855 79.9599C65.3062 79.8692 65.6688 79.3274 65.9613 78.8968C65.9572 78.901 65.951 78.903 65.949 78.9072C65.6419 79.1771 64.9127 80.1083 64.0495 80.1515C64.0495 80.1515 63.6704 80.1123 63.7076 79.9599C63.7199 79.9043 63.8641 79.6757 64.0392 79.4098C63.7837 79.6061 63.5098 79.7773 63.2213 79.9208C62.2881 80.3822 61.7566 80.032 61.7566 79.9208C61.7546 79.8074 63.7384 77.7967 64.1299 77.636Z" fill="#F8AE9D"/>
<path d="M72.533 74.2114C72.533 74.2114 71.0291 75.0643 71.163 76.8772C71.2969 78.69 71.8407 80.7914 74.1109 80.571C76.3812 80.3526 72.533 74.2114 72.533 74.2114Z" fill="#12362E"/>
<path d="M73.7451 80.3924C79.188 82.2816 86.4703 80.4769 91.087 77.3393C93.9794 75.3782 95.8253 72.8875 95.5141 70.4546C94.7087 64.1342 89.7418 49.6476 85.4444 47.5339C82.5232 46.096 78.9798 45.5005 77.0043 45.2616C76.0772 45.1483 75.4983 45.1216 75.4983 45.1216L76.2151 47.1446L79.8038 57.2638C79.9377 63.269 84.2351 66.8349 83.3802 68.2337C82.5253 69.6284 75.7743 71.1343 72.2289 73.522C71.2483 74.1854 70.004 78.9834 73.7451 80.3924Z" fill="#12362E"/>
<path d="M79.8035 57.2632C79.7993 58.4025 79.958 59.5438 80.2547 60.6479C80.5533 61.7522 80.9901 62.8171 81.4969 63.8432C81.7503 64.356 82.0202 64.8588 82.2982 65.3552C82.5723 65.8537 82.8545 66.3482 83.0851 66.855C83.1985 67.1084 83.2975 67.3701 83.3365 67.6275C83.3468 67.7532 83.3572 67.883 83.3221 67.9922C83.314 68.0519 83.2788 68.0972 83.2583 68.1508C83.2191 68.1981 83.1923 68.2498 83.1429 68.295C82.7742 68.6637 82.2467 68.913 81.7461 69.154C79.6902 70.0914 77.5065 70.7856 75.4258 71.721C74.3854 72.1886 73.3555 72.6934 72.3974 73.3237L72.2202 73.4431C72.1605 73.4844 72.105 73.538 72.0472 73.5853C71.9411 73.6882 71.849 73.8045 71.7733 73.9314C71.6207 74.1808 71.5177 74.4527 71.4375 74.7286C71.285 75.2829 71.2211 75.8535 71.217 76.4242C71.2541 75.8577 71.3488 75.2911 71.5157 74.7534C71.6929 74.2198 71.9668 73.7007 72.4798 73.4514C73.442 72.854 74.4741 72.378 75.5205 71.9394C76.5691 71.5066 77.6301 71.0967 78.6952 70.6991C79.7603 70.2953 80.8315 69.9102 81.878 69.4321C82.3931 69.1767 82.9224 68.9358 83.3613 68.4927C83.417 68.4392 83.4622 68.365 83.5097 68.3012C83.5447 68.2228 83.592 68.1488 83.6044 68.0664C83.6539 67.9015 83.6374 67.7388 83.6229 67.5843C83.5734 67.2794 83.4622 67.0033 83.3427 66.7396C83.0976 66.2123 82.8112 65.72 82.5331 65.2234C82.2549 64.7269 81.9748 64.2346 81.7091 63.734C80.6481 61.7398 79.9106 59.5458 79.8035 57.2632Z" fill="white"/>
<path d="M65.6982 48.0755C66.2173 48.5905 68.5287 50.2365 70.7331 50.2365C71.1236 50.2359 71.5132 50.1994 71.897 50.1273C73.747 49.7895 75.3044 48.5555 76.215 47.1423C76.3812 46.8822 76.5278 46.6102 76.6539 46.3284C76.8186 45.9742 76.936 45.6116 77.004 45.2613C76.0769 45.1481 75.1912 44.9152 75.047 44.7505C74.8903 45.83 73.5575 47.7788 71.5386 48.1455C71.3007 48.1897 71.0595 48.2138 70.8176 48.2177H70.8134C69.8657 48.2341 69.1385 47.9313 68.6421 47.6264C68.6379 47.6264 67.6758 46.8682 67.6718 46.8642L65.6982 48.0755Z" fill="#12362E"/>
<path d="M64.2471 71.6095C64.2527 71.5087 64.2398 71.409 64.2434 71.308C64.2476 71.199 64.2597 71.0923 64.2679 70.9834L64.3277 70.3594C64.3661 69.9346 64.4045 69.5096 64.4366 69.0844C64.5006 68.2413 64.544 67.3968 64.5668 66.5516C64.6103 64.8621 64.5859 63.1687 64.4723 61.4828C64.4404 61.0111 64.4023 60.5398 64.3579 60.0691C64.334 59.8276 64.3091 59.5862 64.2832 59.3449C64.2572 59.1081 64.2189 58.8729 64.2158 58.6334C64.214 58.4846 64.4373 58.4745 64.4708 58.6127C64.5694 59.0226 64.5839 59.4629 64.6263 59.8822C64.6666 60.3032 64.7027 60.7242 64.7348 61.1468C64.7962 61.9983 64.837 62.8508 64.857 63.704C64.8934 65.4022 64.8329 67.101 64.6881 68.7952C64.6476 69.2705 64.599 69.7451 64.542 70.2188C64.5129 70.4602 64.4807 70.7012 64.4456 70.9418C64.4293 71.0482 64.4151 71.1546 64.3947 71.2587C64.3694 71.3811 64.3238 71.4941 64.2983 71.6165C64.2843 71.6446 64.2437 71.6341 64.2471 71.6095Z" fill="white"/>
<path d="M64.7219 38.7311C64.7074 38.7311 64.6684 38.7085 64.7014 38.7085C64.7177 38.7085 64.7547 38.7311 64.7219 38.7311Z" fill="#CC6144"/>
<path d="M32.3821 55.6564C33.1663 57.0415 32.794 59.1406 32.794 59.1406C32.794 59.1406 30.5503 58.5232 29.7662 57.138C28.982 55.7527 28.9319 54.2988 29.6537 53.8893C30.3766 53.4795 31.598 54.2712 32.3821 55.6564Z" fill="url(#paint2_linear_6360_62815)"/>
<path d="M34.7243 44.3698C34.915 46.7804 33.0556 49.4319 33.0556 49.4319C33.0556 49.4319 30.362 47.1418 30.1712 44.7311C29.9804 42.3205 30.8444 40.2861 32.1013 40.1855C33.3597 40.085 34.5334 41.9591 34.7243 44.3698Z" fill="url(#paint3_linear_6360_62815)"/>
<path d="M47.5332 48.8028C48.7967 49.8034 49.2475 51.9139 49.2475 51.9139C49.2475 51.9139 46.9076 52.1899 45.6442 51.1895C44.3809 50.189 43.7797 48.8444 44.3006 48.1851C44.8227 47.5252 46.27 47.8024 47.5332 48.8028Z" fill="url(#paint4_linear_6360_62815)"/>
<path d="M33.0715 67.4427V69.8112L35.2096 72.3595H26.2283C23.5136 72.3595 21.3115 70.1574 21.3115 67.4427C21.3115 64.7279 23.5136 62.5259 26.2283 62.5259H28.1547C30.8712 62.5259 33.0715 64.7279 33.0715 67.4427Z" fill="#E1E4E5"/>
<path d="M29.2822 67.4341C29.2823 67.6659 29.3744 67.8882 29.5383 68.0521C29.7022 68.2161 29.9245 68.3082 30.1563 68.3083C30.3881 68.3082 30.6104 68.2161 30.7743 68.0521C30.9382 67.8882 31.0303 67.6659 31.0304 67.4341C31.0302 67.2023 30.9381 66.9801 30.7742 66.8162C30.6103 66.6523 30.3881 66.5602 30.1563 66.5601C29.9245 66.5601 29.7022 66.6523 29.5383 66.8162C29.3744 66.9801 29.2823 67.2023 29.2822 67.4341ZM26.3117 67.4341C26.3119 67.6659 26.404 67.8882 26.5679 68.0521C26.7319 68.216 26.9541 68.3081 27.186 68.3082C27.4177 68.3081 27.64 68.2159 27.8039 68.052C27.9678 67.8882 28.0599 67.6659 28.06 67.4341C28.0599 67.2023 27.9678 66.9801 27.8039 66.8162C27.64 66.6523 27.4177 66.5602 27.186 66.5601C26.9541 66.5601 26.7319 66.6522 26.5679 66.8161C26.404 66.98 26.3119 67.2023 26.3117 67.4341ZM23.3416 67.4341C23.3417 67.6659 23.4338 67.8882 23.5977 68.052C23.7616 68.2159 23.9838 68.3081 24.2156 68.3082C24.4474 68.3081 24.6697 68.216 24.8336 68.0521C24.9976 67.8882 25.0897 67.6659 25.0898 67.4341C25.0897 67.2023 24.9976 66.98 24.8336 66.8161C24.6697 66.6522 24.4474 66.5601 24.2156 66.5601C23.9838 66.5602 23.7616 66.6523 23.5977 66.8162C23.4338 66.9801 23.3417 67.2023 23.3416 67.4341Z" fill="white"/>
<path d="M54.2669 30.948L57.0734 37.7906C57.1191 37.9018 57.1425 38.0209 57.1421 38.1411C57.1418 38.2613 57.1178 38.3803 57.0714 38.4912C57.0251 38.6022 56.9574 38.7029 56.8721 38.7877C56.7869 38.8724 56.6858 38.9396 56.5746 38.9853L44.6909 43.859C44.5159 43.9306 44.323 43.9463 44.1388 43.9038C43.9546 43.8613 43.788 43.7628 43.6621 43.6217C43.5924 43.5443 43.5367 43.4554 43.4972 43.359L40.6919 36.5192C40.6461 36.4082 40.6228 36.2892 40.623 36.1691C40.6233 36.049 40.6473 35.9301 40.6936 35.8193C40.7398 35.7084 40.8075 35.6078 40.8926 35.5231C40.9778 35.4385 41.0789 35.3714 41.19 35.3258L53.0735 30.451C53.5401 30.2597 54.0726 30.4817 54.2669 30.948Z" fill="#E1E4E5"/>
<path d="M49.3721 37.4683L56.899 38.2971C56.8737 38.4039 56.8233 38.5033 56.752 38.5868C56.6806 38.6703 56.5904 38.7356 56.4888 38.7773L44.6065 43.6517C44.5055 43.6931 44.3961 43.71 44.2873 43.7009C44.1785 43.6918 44.0735 43.6571 43.9807 43.5995L49.3721 37.4683Z" fill="#E1E4E5" stroke="white" stroke-width="0.448311"/>
<path d="M40.8996 36.4343C40.8651 36.3505 40.8475 36.2605 40.8477 36.1699C40.8479 36.0793 40.8659 35.9896 40.9008 35.9059C40.9357 35.8222 40.9867 35.7463 41.051 35.6823C41.1152 35.6184 41.1915 35.5678 41.2753 35.5333H41.2755L53.159 30.6585C53.3106 30.5964 53.4793 30.5902 53.6351 30.6409C53.7909 30.6916 53.9237 30.796 54.0097 30.9354L49.4211 38.1345L40.9965 36.6701L40.8996 36.4343Z" fill="#E1E4E5" stroke="white" stroke-width="0.448311"/>
<path d="M104.021 76.4602C102.398 78.1119 99.3633 77.7638 99.3633 77.7638C99.3633 77.7638 98.9617 74.7373 100.586 73.0865C102.209 71.4347 105.242 71.7819 105.242 71.7819C105.242 71.7819 105.644 74.8084 104.021 76.4602Z" fill="url(#paint5_linear_6360_62815)"/>
<path d="M22.7803 30.8011C23.2908 31.7363 24.678 31.964 24.678 31.964C24.678 31.964 25.2365 30.675 24.7252 29.7399C24.2146 28.8046 22.8283 28.5767 22.8283 28.5767C22.8283 28.5767 22.2697 29.8657 22.7803 30.8011Z" fill="url(#paint6_linear_6360_62815)"/>
<path d="M108.137 30.5456C109.217 29.6129 109.122 27.7334 109.122 27.7334C109.122 27.7334 107.278 27.3672 106.199 28.3008C105.119 29.2335 105.213 31.1122 105.213 31.1122C105.213 31.1122 107.058 31.4784 108.137 30.5456Z" fill="url(#paint7_linear_6360_62815)"/>
<path d="M104.682 23.5226C105.012 22.5734 104.293 21.46 104.293 21.46C104.293 21.46 103.038 21.8863 102.709 22.836C102.379 23.7854 103.098 24.8984 103.098 24.8984C103.098 24.8984 104.352 24.472 104.682 23.5226Z" fill="url(#paint8_linear_6360_62815)"/>
<path fill-rule="evenodd" clip-rule="evenodd" d="M112.196 62.5105V54.6879C112.196 54.4994 112.121 54.3187 111.988 54.1854C111.855 54.0521 111.674 53.9771 111.486 53.9771H100.112C99.9237 53.9771 99.743 54.0521 99.6097 54.1854C99.4764 54.3187 99.4014 54.4994 99.4014 54.6879V63.5922C99.4014 64.4008 100.251 64.9274 100.975 64.5671L103.375 63.3732C103.524 63.299 103.688 63.26 103.855 63.2592L111.489 63.2214C111.677 63.2203 111.857 63.1449 111.989 63.0117C112.122 62.8786 112.196 62.6984 112.196 62.5105Z" fill="#00916E"/>
<path d="M105.699 58.4984C105.686 58.5115 105.675 58.5271 105.668 58.5442C105.661 58.5614 105.657 58.5797 105.657 58.5983C105.657 58.6169 105.661 58.6352 105.668 58.6524C105.675 58.6695 105.686 58.6851 105.699 58.6982C105.712 58.7113 105.727 58.7218 105.745 58.7289C105.762 58.736 105.78 58.7396 105.799 58.7396C105.817 58.7396 105.836 58.736 105.853 58.7289C105.87 58.7218 105.885 58.7114 105.899 58.6983C105.925 58.6718 105.94 58.6359 105.94 58.5984C105.94 58.5609 105.925 58.525 105.899 58.4985C105.872 58.472 105.836 58.4571 105.799 58.4571C105.761 58.457 105.725 58.4719 105.699 58.4984ZM108.243 58.4984C108.23 58.5115 108.219 58.5271 108.212 58.5443C108.205 58.5614 108.201 58.5798 108.201 58.5984C108.201 58.6169 108.205 58.6353 108.212 58.6525C108.219 58.6696 108.23 58.6852 108.243 58.6984C108.256 58.7115 108.271 58.7219 108.289 58.729C108.306 58.7362 108.324 58.7398 108.343 58.7398C108.361 58.7398 108.38 58.7362 108.397 58.7291C108.414 58.722 108.43 58.7116 108.443 58.6985C108.469 58.6719 108.484 58.636 108.484 58.5985C108.484 58.561 108.469 58.525 108.443 58.4985C108.416 58.472 108.38 58.457 108.343 58.457C108.305 58.457 108.269 58.4719 108.243 58.4984ZM103.155 58.4984C103.141 58.5115 103.131 58.5271 103.124 58.5442C103.117 58.5614 103.113 58.5797 103.113 58.5983C103.113 58.6169 103.117 58.6352 103.124 58.6524C103.131 58.6695 103.141 58.6851 103.154 58.6982C103.168 58.7113 103.183 58.7218 103.2 58.7289C103.217 58.736 103.236 58.7396 103.254 58.7396C103.273 58.7396 103.291 58.736 103.308 58.7289C103.326 58.7218 103.341 58.7114 103.354 58.6983C103.381 58.6718 103.396 58.6359 103.396 58.5984C103.396 58.5609 103.381 58.525 103.354 58.4985C103.328 58.472 103.292 58.4571 103.255 58.4571C103.217 58.457 103.181 58.4719 103.155 58.4984Z" stroke="white" stroke-width="1.40638" stroke-linecap="round" stroke-linejoin="round"/>
<path d="M36.1589 35.3679L34.7466 35.7577C33.3427 36.1452 31.8903 35.3212 31.5028 33.9171C31.1153 32.5131 31.9393 31.0608 33.3434 30.6733C34.7472 30.2859 36.1997 31.1098 36.5872 32.5139L36.7041 32.9375C36.7519 33.1235 36.7248 33.3208 36.6285 33.487C36.5323 33.6532 36.3746 33.775 36.1895 33.8261C36.0043 33.8772 35.8065 33.8535 35.6386 33.7602C35.4708 33.6669 35.3462 33.5115 35.2918 33.3273L35.1749 32.9037M35.1749 32.9037C35.1339 32.7553 35.0641 32.6165 34.9695 32.4951C34.8749 32.3736 34.7573 32.2721 34.6234 32.1961C34.4896 32.1201 34.342 32.0713 34.1893 32.0523C34.0365 32.0334 33.8816 32.0447 33.7332 32.0856C33.5097 32.1473 33.3095 32.2739 33.158 32.4493C33.0065 32.6247 32.9103 32.8411 32.8818 33.0712C32.8533 33.3013 32.8936 33.5346 32.9977 33.7418C33.1017 33.9489 33.2649 34.1205 33.4665 34.2349C33.6681 34.3493 33.8992 34.4014 34.1304 34.3845C34.3616 34.3676 34.5826 34.2825 34.7654 34.1401C34.9483 33.9976 35.0848 33.804 35.1577 33.584C35.2306 33.3639 35.2365 33.1272 35.1749 32.9037Z" stroke="#E1E4E5" stroke-width="0.6692" stroke-linecap="round" stroke-linejoin="round"/>
<path d="M98.5143 45.8591C99.7652 45.0014 99.8877 43.0044 99.8877 43.0044C99.8877 43.0044 97.9818 42.3993 96.7313 43.2581C95.4805 44.1158 95.3574 46.1118 95.3574 46.1118C95.3574 46.1118 97.2634 46.717 98.5143 45.8591Z" fill="#E1E4E5"/>
<path d="M100.429 31.9936C101.684 31.9936 102.701 33.011 102.701 34.2661C102.701 35.5211 101.684 36.5386 100.429 36.5386C99.1737 36.5386 98.1562 35.5211 98.1562 34.2661C98.1562 33.011 99.1737 31.9936 100.429 31.9936Z" fill="#E1E4E5"/>
<path d="M107.906 46.2419C108.668 46.2419 109.286 46.8597 109.286 47.6217C109.286 48.3837 108.668 49.0015 107.906 49.0015C107.144 49.0015 106.526 48.3837 106.526 47.6217C106.526 46.8597 107.144 46.2419 107.906 46.2419Z" fill="#E1E4E5"/>
<path d="M110.178 71.4537L108.149 69.5058L110.178 67.5581L112.207 69.5058L110.178 71.4537Z" stroke="#E1E4E5" stroke-width="0.825689" stroke-linecap="round" stroke-linejoin="round"/>
<path d="M67.4668 81.5296H42.1086L34.4795 62.5601H59.8004L67.4668 81.5296Z" fill="#00916E"/>
<path d="M41.8105 80.7915H75.2979V81.5301H42.1081L41.8105 80.7915Z" fill="#00916E"/>
<path d="M47.6977 71.9975C47.3725 70.8552 48.0283 69.9292 49.1603 69.9292C50.2922 69.9292 51.4718 70.8552 51.7971 71.9975C52.1223 73.1397 51.4665 74.0659 50.3345 74.0659C49.2026 74.0659 48.023 73.1397 47.6977 71.9975Z" fill="white"/>
</g>
</g>
<defs>
<linearGradient id="paint0_linear_6360_62815" x1="53.5545" y1="118.542" x2="118.988" y2="-33.6325" gradientUnits="userSpaceOnUse">
<stop stop-color="white"/>
<stop offset="1" stop-color="#EEEEEE"/>
</linearGradient>
<linearGradient id="paint1_linear_6360_62815" x1="44.7185" y1="93.3187" x2="48.5749" y2="23.3439" gradientUnits="userSpaceOnUse">
<stop stop-color="white"/>
<stop offset="1" stop-color="#EEEEEE"/>
</linearGradient>
<linearGradient id="paint2_linear_6360_62815" x1="34.3046" y1="55.5455" x2="26.1775" y2="57.7779" gradientUnits="userSpaceOnUse">
<stop stop-color="white"/>
<stop offset="1" stop-color="#EEEEEE"/>
</linearGradient>
<linearGradient id="paint3_linear_6360_62815" x1="37.4426" y1="45.4511" x2="24.819" y2="43.3092" gradientUnits="userSpaceOnUse">
<stop stop-color="white"/>
<stop offset="1" stop-color="#EEEEEE"/>
</linearGradient>
<linearGradient id="paint4_linear_6360_62815" x1="49.2944" y1="47.9662" x2="42.522" y2="53.1573" gradientUnits="userSpaceOnUse">
<stop stop-color="white"/>
<stop offset="1" stop-color="#EEEEEE"/>
</linearGradient>
<linearGradient id="paint5_linear_6360_62815" x1="97.546" y1="82.1024" x2="109.279" y2="63.7101" gradientUnits="userSpaceOnUse">
<stop stop-color="white"/>
<stop offset="1" stop-color="#EEEEEE"/>
</linearGradient>
<linearGradient id="paint6_linear_6360_62815" x1="24.9366" y1="34.1132" x2="22.0574" y2="24.496" gradientUnits="userSpaceOnUse">
<stop stop-color="white"/>
<stop offset="1" stop-color="#EEEEEE"/>
</linearGradient>
<linearGradient id="paint7_linear_6360_62815" x1="111.862" y1="26.7868" x2="100.091" y2="33.2758" gradientUnits="userSpaceOnUse">
<stop stop-color="white"/>
<stop offset="1" stop-color="#EEEEEE"/>
</linearGradient>
<linearGradient id="paint8_linear_6360_62815" x1="105.63" y1="19.9178" x2="100.735" y2="28.0224" gradientUnits="userSpaceOnUse">
<stop stop-color="white"/>
<stop offset="1" stop-color="#EEEEEE"/>
</linearGradient>
<clipPath id="clip0_6360_62815">
<rect width="140" height="93.3333" fill="white"/>
</clipPath>
</defs>
</svg>
