<svg width="184" height="31" viewBox="0 0 184 31" fill="none" xmlns="http://www.w3.org/2000/svg">
<path fill-rule="evenodd" clip-rule="evenodd" d="M2.0265 22.9714C0.646693 20.6311 3.81585 18.7832 5.49307 21.3624C8.88651 26.5891 16.6046 26.633 20.0614 21.4453C21.2901 19.6072 18.4379 17.457 16.9069 19.5731C14.4935 22.9129 9.29606 21.9621 8.02352 18.3346C7.65297 17.2815 7.6481 16.0431 7.99427 14.9802C9.20342 11.2747 14.474 10.2899 16.9069 13.654C18.4379 15.7798 21.2901 13.6297 20.0614 11.7818C16.6046 6.59413 8.89138 6.63801 5.49307 11.8647C3.81585 14.4439 0.646693 12.596 2.0265 10.2557C8.42332 -0.582798 25.3125 3.82965 25.3125 16.6038C25.3125 29.3779 8.42332 33.805 2.0265 22.9714Z" fill="url(#paint0_linear_6347_66802)"/>
<path d="M41.3294 23.8873C40.2673 24.7471 38.927 25.1517 37.3085 25.1517C36.0188 25.1517 34.8808 24.8988 33.9198 24.3425C32.9335 23.7861 32.1748 23.0022 31.6438 21.9906C31.1127 20.9791 30.8598 19.8158 30.8598 18.5008C30.8598 17.1857 31.1127 16.0477 31.6691 15.0362C32.2001 14.0499 32.9588 13.2912 33.9451 12.7349C34.9313 12.1785 36.0693 11.9003 37.3844 11.9003C39.0028 11.9003 40.3179 12.3303 41.3547 13.1901C42.3663 14.0499 43.0238 15.1879 43.2767 16.6547H40.4696C40.2673 15.9213 39.9133 15.3396 39.3569 14.8844C38.8005 14.4545 38.1177 14.2269 37.3085 14.2269C36.1958 14.2269 35.3107 14.6315 34.6532 15.4155C33.9956 16.2248 33.6669 17.2363 33.6669 18.5008C33.6669 19.7905 33.9956 20.8273 34.6532 21.6366C35.3107 22.4458 36.1958 22.8252 37.3085 22.8252C38.143 22.8252 38.8511 22.6228 39.4075 22.1676C39.9638 21.7124 40.3179 21.1055 40.4949 20.3468H43.2767C43.0238 21.8642 42.3663 23.0275 41.3294 23.8873ZM45.5302 12.0521L49.1465 22.0412L52.6616 12.0521H55.5698L49.7028 27.0231C49.3994 27.8071 49.1212 28.414 48.8683 28.8186C48.6154 29.2232 48.2866 29.552 47.9326 29.7543C47.5533 29.9566 47.0475 30.0578 46.4406 30.0578H43.507V27.6553H45.429C45.9348 27.6553 46.3141 27.5795 46.5164 27.4277C46.7187 27.276 46.921 26.8967 47.1486 26.3403L47.6797 25.1012L42.6219 12.0521H45.5302ZM66.03 12.7096C66.9404 13.2407 67.6737 13.9993 68.2048 15.0109C68.7106 16.0224 68.9888 17.1857 68.9888 18.526C68.9888 19.8411 68.7106 21.0044 68.2048 22.0159C67.6737 23.0275 66.9404 23.7861 66.03 24.3425C65.0943 24.8988 64.0321 25.1517 62.8689 25.1517C61.9079 25.1517 61.0733 24.9747 60.3653 24.6207C59.6572 24.2666 59.0755 23.7861 58.6709 23.1792V30.0578H55.9397V12.0521H58.3169L58.6456 13.974C59.6825 12.6084 61.0986 11.9003 62.8689 11.9003C64.0321 11.9003 65.0943 12.1785 66.03 12.7096ZM65.1449 21.6366C65.8529 20.8273 66.207 19.7905 66.207 18.526C66.207 17.2616 65.8529 16.2248 65.1449 15.4155C64.4368 14.6315 63.5264 14.2269 62.4137 14.2269C61.2757 14.2269 60.3653 14.6315 59.6825 15.4155C58.9744 16.1995 58.6456 17.211 58.6456 18.4755C58.6456 19.7905 58.9744 20.8273 59.6825 21.6366C60.3653 22.4458 61.2757 22.8504 62.4137 22.8504C63.5264 22.8504 64.4368 22.4458 65.1449 21.6366ZM77.3225 12.0521V14.6063H76.1086C74.9706 14.6063 74.1613 14.9856 73.6556 15.719C73.1498 16.4524 72.8969 17.388 72.8969 18.5008V25H70.1657V12.0521H72.5934L72.8969 13.9993C73.2509 13.3924 73.7314 12.9372 74.3384 12.5831C74.92 12.2291 75.704 12.0521 76.7155 12.0521H77.3225ZM77.7308 15.0615C78.2619 14.0499 78.9953 13.2912 79.9562 12.7349C80.9172 12.1785 82.0047 11.9003 83.2438 11.9003C84.483 11.9003 85.5704 12.1532 86.5314 12.659C87.4923 13.1648 88.2257 13.8982 88.7821 14.8086C89.3384 15.7443 89.6166 16.8317 89.6419 18.0708C89.6419 18.4249 89.6166 18.7536 89.566 19.1077H79.8045V19.2594C79.8551 20.3974 80.2091 21.2825 80.8667 21.94C81.4989 22.5976 82.3587 22.9263 83.4208 22.9263C84.2554 22.9263 84.9635 22.7493 85.5451 22.3447C86.1015 21.94 86.4808 21.3837 86.6831 20.6503H89.4143C89.1614 21.9653 88.5292 23.0528 87.4923 23.8873C86.4555 24.7471 85.1658 25.1517 83.6231 25.1517C82.2575 25.1517 81.0943 24.8988 80.0827 24.3425C79.0711 23.7861 78.3125 23.0275 77.7561 22.0159C77.1998 21.0296 76.9469 19.8664 76.9469 18.5513C76.9469 17.2363 77.1998 16.073 77.7308 15.0615ZM86.8601 17.1099C86.7337 16.1742 86.3543 15.4408 85.7221 14.9097C85.0899 14.3787 84.3059 14.1005 83.345 14.1005C82.4346 14.1005 81.6759 14.3787 81.0184 14.935C80.3609 15.4914 80.0068 16.1995 79.9057 17.1099H86.8601ZM92.9391 20.7262C92.9897 21.409 93.2932 21.9653 93.8748 22.3952C94.4565 22.8252 95.2151 23.0275 96.1508 23.0275C96.9601 23.0275 97.6429 22.8757 98.1487 22.5723C98.6544 22.2688 98.9326 21.8389 98.9326 21.3078C98.9326 20.8779 98.8062 20.5492 98.5786 20.3216C98.3257 20.1192 98.0222 19.9675 97.6176 19.8664C97.213 19.7652 96.606 19.664 95.7968 19.5629C94.6588 19.4364 93.7231 19.2594 92.9897 19.0318C92.2563 18.8042 91.6747 18.4502 91.2195 17.9444C90.7643 17.4386 90.562 16.7811 90.562 15.9213C90.562 15.1373 90.7643 14.4292 91.2195 13.8223C91.6747 13.2154 92.2816 12.7349 93.0656 12.3808C93.8495 12.0521 94.7347 11.8751 95.7462 11.8751C97.3647 11.8751 98.705 12.2544 99.7166 12.9625C100.728 13.6959 101.284 14.7074 101.386 16.0224H98.7303C98.6544 15.4408 98.351 14.9603 97.8452 14.581C97.3141 14.2016 96.6566 13.9993 95.8727 13.9993C95.0634 13.9993 94.4312 14.1511 93.9507 14.4545C93.4449 14.758 93.2173 15.1879 93.2173 15.6937C93.2173 16.0983 93.3185 16.3765 93.5714 16.5788C93.8242 16.7811 94.1277 16.9076 94.5071 16.9834C94.8611 17.0593 95.468 17.1352 96.3026 17.2363C97.4153 17.3628 98.351 17.5398 99.1096 17.7927C99.8683 18.0456 100.475 18.4249 100.93 18.956C101.386 19.487 101.613 20.1951 101.613 21.1055C101.613 21.9148 101.36 22.6481 100.905 23.2551C100.425 23.862 99.7671 24.3425 98.9579 24.6712C98.1234 25 97.1877 25.1517 96.1761 25.1517C94.4312 25.1517 93.015 24.7724 91.9529 23.9884C90.8907 23.2045 90.3344 22.1171 90.3091 20.7262H92.9391ZM104.745 20.7262C104.795 21.409 105.099 21.9653 105.681 22.3952C106.262 22.8252 107.021 23.0275 107.957 23.0275C108.766 23.0275 109.449 22.8757 109.954 22.5723C110.46 22.2688 110.738 21.8389 110.738 21.3078C110.738 20.8779 110.612 20.5492 110.384 20.3216C110.131 20.1192 109.828 19.9675 109.423 19.8664C109.019 19.7652 108.412 19.664 107.603 19.5629C106.465 19.4364 105.529 19.2594 104.795 19.0318C104.062 18.8042 103.48 18.4502 103.025 17.9444C102.57 17.4386 102.368 16.7811 102.368 15.9213C102.368 15.1373 102.57 14.4292 103.025 13.8223C103.48 13.2154 104.087 12.7349 104.871 12.3808C105.655 12.0521 106.54 11.8751 107.552 11.8751C109.17 11.8751 110.511 12.2544 111.522 12.9625C112.534 13.6959 113.09 14.7074 113.191 16.0224H110.536C110.46 15.4408 110.157 14.9603 109.651 14.581C109.12 14.2016 108.462 13.9993 107.678 13.9993C106.869 13.9993 106.237 14.1511 105.756 14.4545C105.251 14.758 105.023 15.1879 105.023 15.6937C105.023 16.0983 105.124 16.3765 105.377 16.5788C105.63 16.7811 105.933 16.9076 106.313 16.9834C106.667 17.0593 107.274 17.1352 108.108 17.2363C109.221 17.3628 110.157 17.5398 110.915 17.7927C111.674 18.0456 112.281 18.4249 112.736 18.956C113.191 19.487 113.419 20.1951 113.419 21.1055C113.419 21.9148 113.166 22.6481 112.711 23.2551C112.23 23.862 111.573 24.3425 110.764 24.6712C109.929 25 108.993 25.1517 107.982 25.1517C106.237 25.1517 104.821 24.7724 103.759 23.9884C102.697 23.2045 102.14 22.1171 102.115 20.7262H104.745ZM114.678 22.1929C115.006 21.8895 115.436 21.7124 115.942 21.7124C116.448 21.7124 116.852 21.8895 117.206 22.1929C117.535 22.5217 117.712 22.9263 117.712 23.4321C117.712 23.9379 117.535 24.3678 117.206 24.6712C116.852 25 116.448 25.1517 115.942 25.1517C115.436 25.1517 115.006 25 114.678 24.6712C114.349 24.3678 114.197 23.9379 114.197 23.4321C114.197 22.9263 114.349 22.5217 114.678 22.1929Z" fill="#00916E"/>
<path d="M129.665 13.3165C130.626 14.2775 131.131 15.7948 131.131 17.8685V25H128.4V18.0203C128.4 16.8064 128.122 15.8707 127.591 15.2132C127.06 14.581 126.301 14.2522 125.29 14.2522C124.202 14.2522 123.342 14.6315 122.735 15.3902C122.128 16.1489 121.825 17.1604 121.825 18.4502V25H119.094V7.29777H121.825V13.9235C122.786 12.5831 124.152 11.9003 125.897 11.9003C127.439 11.9003 128.704 12.3808 129.665 13.3165ZM132.907 15.0615C133.438 14.0499 134.172 13.2912 135.132 12.7349C136.093 12.1785 137.181 11.9003 138.42 11.9003C139.659 11.9003 140.747 12.1532 141.708 12.659C142.669 13.1648 143.402 13.8982 143.958 14.8086C144.515 15.7443 144.793 16.8317 144.818 18.0708C144.818 18.4249 144.793 18.7536 144.742 19.1077H134.981V19.2594C135.031 20.3974 135.385 21.2825 136.043 21.94C136.675 22.5976 137.535 22.9263 138.597 22.9263C139.432 22.9263 140.14 22.7493 140.721 22.3447C141.278 21.94 141.657 21.3837 141.859 20.6503H144.591C144.338 21.9653 143.705 23.0528 142.669 23.8873C141.632 24.7471 140.342 25.1517 138.799 25.1517C137.434 25.1517 136.27 24.8988 135.259 24.3425C134.247 23.7861 133.489 23.0275 132.932 22.0159C132.376 21.0296 132.123 19.8664 132.123 18.5513C132.123 17.2363 132.376 16.073 132.907 15.0615ZM142.036 17.1099C141.91 16.1742 141.531 15.4408 140.898 14.9097C140.266 14.3787 139.482 14.1005 138.521 14.1005C137.611 14.1005 136.852 14.3787 136.195 14.935C135.537 15.4914 135.183 16.1995 135.082 17.1099H142.036ZM158.406 22.6228V25H156.965C156.105 25 155.498 24.823 155.144 24.4689C154.765 24.1149 154.588 23.6091 154.588 22.9263C153.601 24.4184 152.185 25.1517 150.314 25.1517C148.847 25.1517 147.684 24.823 146.824 24.1402C145.939 23.4827 145.509 22.547 145.509 21.3584C145.509 20.0434 145.964 19.0065 146.925 18.2984C147.861 17.5904 149.226 17.211 151.047 17.211H154.309V16.4271C154.309 15.719 154.056 15.1373 153.551 14.7327C153.045 14.3281 152.337 14.1005 151.452 14.1005C150.642 14.1005 149.985 14.2775 149.479 14.6315C148.973 14.9856 148.67 15.4408 148.569 15.9972H145.888C146.015 14.7074 146.596 13.6959 147.608 12.9878C148.619 12.2797 149.934 11.9003 151.578 11.9003C153.298 11.9003 154.638 12.305 155.599 13.1142C156.535 13.9235 157.015 15.0867 157.015 16.6041V21.7124C157.015 22.3194 157.293 22.6228 157.875 22.6228H158.406ZM154.309 19.2341H150.921C150.061 19.2341 149.429 19.4112 148.973 19.7399C148.518 20.0687 148.291 20.5492 148.291 21.1814C148.291 21.7377 148.493 22.1929 148.923 22.5217C149.353 22.8757 149.934 23.0275 150.693 23.0275C151.806 23.0275 152.691 22.724 153.323 22.1171C153.955 21.5101 154.284 20.7009 154.309 19.6893V19.2341ZM158.882 7.29777H161.614V25H158.882V7.29777ZM163.279 8.43577H166.01V12.0521H169.146V14.4545H166.01V21.2067C166.01 21.7124 166.112 22.0918 166.314 22.2941C166.516 22.4964 166.845 22.5976 167.351 22.5976H169.424V25H166.794C165.555 25 164.67 24.7218 164.114 24.1402C163.557 23.5838 163.279 22.6987 163.279 21.4848V8.43577ZM180.47 13.3165C181.431 14.2775 181.936 15.7948 181.936 17.8685V25H179.205V18.0203C179.205 16.8064 178.927 15.8707 178.396 15.2132C177.865 14.581 177.106 14.2522 176.095 14.2522C175.007 14.2522 174.147 14.6315 173.54 15.3902C172.933 16.1489 172.63 17.1604 172.63 18.4502V25H169.899V7.29777H172.63V13.9235C173.591 12.5831 174.957 11.9003 176.702 11.9003C178.244 11.9003 179.509 12.3808 180.47 13.3165Z" fill="black"/>
<defs>
<linearGradient id="paint0_linear_6347_66802" x1="27.0043" y1="2.42375" x2="-4.27635" y2="33.7044" gradientUnits="userSpaceOnUse">
<stop offset="0.1636" stop-color="#1DDDA6"/>
<stop offset="0.4432" stop-color="#00926E"/>
<stop offset="0.7454" stop-color="#0E7F5C"/>
</linearGradient>
</defs>
</svg>
