<svg width="245" height="40" viewBox="0 0 245 40" fill="none" xmlns="http://www.w3.org/2000/svg">
<path fill-rule="evenodd" clip-rule="evenodd" d="M2.702 30.6285C0.862258 27.5081 5.0878 25.0443 7.32409 28.4832C11.8487 35.4521 22.1395 35.5106 26.7486 28.5937C28.3868 26.1429 24.5838 23.276 22.5426 26.0974C19.3246 30.5505 12.3947 29.2828 10.698 24.4462C10.204 23.042 10.1975 21.3908 10.659 19.9736C12.2712 15.033 19.2986 13.7198 22.5426 18.2054C24.5838 21.0398 28.3868 18.1729 26.7486 15.7091C22.1395 8.79217 11.8552 8.85068 7.32409 15.8196C5.0878 19.2585 0.862258 16.7947 2.702 13.6743C11.2311 -0.777064 33.75 5.10619 33.75 22.1384C33.75 39.1706 11.2311 45.0734 2.702 30.6285Z" fill="url(#paint0_linear_6341_62605)"/>
<path d="M55.1059 31.5164C53.6897 32.6628 51.9026 33.2023 49.7447 33.2023C48.025 33.2023 46.5077 32.8651 45.2264 32.1233C43.9114 31.3815 42.8998 30.3362 42.1917 28.9875C41.4836 27.6388 41.1464 26.0877 41.1464 24.3343C41.1464 22.581 41.4836 21.0636 42.2254 19.7149C42.9335 18.3999 43.9451 17.3883 45.2601 16.6465C46.5751 15.9047 48.0924 15.5338 49.8458 15.5338C52.0038 15.5338 53.7572 16.107 55.1396 17.2534C56.4884 18.3999 57.365 19.9172 57.7022 21.8729H53.9595C53.6897 20.895 53.2177 20.1195 52.4759 19.5126C51.7341 18.9394 50.8237 18.6359 49.7447 18.6359C48.261 18.6359 47.0809 19.1754 46.2042 20.2207C45.3275 21.2997 44.8892 22.6484 44.8892 24.3343C44.8892 26.054 45.3275 27.4364 46.2042 28.5154C47.0809 29.5944 48.261 30.1002 49.7447 30.1002C50.8574 30.1002 51.8015 29.8305 52.5433 29.2235C53.2851 28.6166 53.7572 27.8073 53.9932 26.7958H57.7022C57.365 28.8189 56.4884 30.37 55.1059 31.5164ZM60.7069 15.7361L65.5286 29.0549L70.2155 15.7361H74.0931L66.2704 35.6975C65.8658 36.7428 65.4949 37.552 65.1577 38.0915C64.8205 38.631 64.3822 39.0693 63.9101 39.3391C63.4044 39.6088 62.73 39.7437 61.9207 39.7437H58.0094V36.5404H60.572C61.2464 36.5404 61.7521 36.4393 62.0219 36.237C62.2916 36.0347 62.5614 35.5289 62.8649 34.7871L63.5729 33.1349L56.8292 15.7361H60.7069ZM88.04 16.6128C89.2538 17.3209 90.2317 18.3324 90.9398 19.6812C91.6141 21.0299 91.985 22.581 91.985 24.3681C91.985 26.1214 91.6141 27.6725 90.9398 29.0212C90.2317 30.37 89.2538 31.3815 88.04 32.1233C86.7924 32.8651 85.3762 33.2023 83.8251 33.2023C82.5438 33.2023 81.4311 32.9663 80.487 32.4942C79.5429 32.0222 78.7674 31.3815 78.2279 30.5723V39.7437H74.5863V15.7361H77.7558L78.1941 18.2987C79.5766 16.4779 81.4648 15.5338 83.8251 15.5338C85.3762 15.5338 86.7924 15.9047 88.04 16.6128ZM86.8598 28.5154C87.8039 27.4364 88.276 26.054 88.276 24.3681C88.276 22.6821 87.8039 21.2997 86.8598 20.2207C85.9157 19.1754 84.7018 18.6359 83.2182 18.6359C81.7009 18.6359 80.487 19.1754 79.5766 20.2207C78.6325 21.2659 78.1941 22.6147 78.1941 24.3006C78.1941 26.054 78.6325 27.4364 79.5766 28.5154C80.487 29.5944 81.7009 30.1339 83.2182 30.1339C84.7018 30.1339 85.9157 29.5944 86.8598 28.5154ZM103.097 15.7361V19.1417H101.478C99.9608 19.1417 98.8818 19.6475 98.2074 20.6253C97.533 21.6031 97.1959 22.8507 97.1959 24.3343V33H93.5543V15.7361H96.7912L97.1959 18.3324C97.6679 17.5232 98.3086 16.9163 99.1178 16.4442C99.8933 15.9721 100.939 15.7361 102.287 15.7361H103.097ZM103.641 19.7486C104.349 18.3999 105.327 17.3883 106.608 16.6465C107.89 15.9047 109.34 15.5338 110.992 15.5338C112.644 15.5338 114.094 15.871 115.375 16.5454C116.656 17.2197 117.634 18.1976 118.376 19.4114C119.118 20.659 119.489 22.1089 119.523 23.7611C119.523 24.2332 119.489 24.6715 119.421 25.1436H106.406V25.3459C106.473 26.8632 106.946 28.0434 107.822 28.9201C108.665 29.7967 109.812 30.2351 111.228 30.2351C112.34 30.2351 113.285 29.9991 114.06 29.4596C114.802 28.9201 115.308 28.1782 115.577 27.2004H119.219C118.882 28.9538 118.039 30.4037 116.656 31.5164C115.274 32.6628 113.554 33.2023 111.498 33.2023C109.677 33.2023 108.126 32.8651 106.777 32.1233C105.428 31.3815 104.417 30.37 103.675 29.0212C102.933 27.7062 102.596 26.1551 102.596 24.4018C102.596 22.6484 102.933 21.0974 103.641 19.7486ZM115.813 22.4798C115.645 21.2322 115.139 20.2544 114.296 19.5463C113.453 18.8382 112.408 18.4673 111.127 18.4673C109.913 18.4673 108.901 18.8382 108.025 19.58C107.148 20.3218 106.676 21.2659 106.541 22.4798H115.813ZM123.919 27.3016C123.986 28.212 124.391 28.9538 125.166 29.527C125.942 30.1002 126.954 30.37 128.201 30.37C129.28 30.37 130.19 30.1676 130.865 29.763C131.539 29.3584 131.91 28.7852 131.91 28.0771C131.91 27.5039 131.742 27.0655 131.438 26.7621C131.101 26.4923 130.696 26.29 130.157 26.1551C129.617 26.0203 128.808 25.8854 127.729 25.7505C126.212 25.5819 124.964 25.3459 123.986 25.0424C123.008 24.739 122.233 24.2669 121.626 23.5925C121.019 22.9182 120.749 22.0415 120.749 20.895C120.749 19.8498 121.019 18.9057 121.626 18.0964C122.233 17.2872 123.042 16.6465 124.087 16.1744C125.133 15.7361 126.313 15.5001 127.662 15.5001C129.82 15.5001 131.607 16.0059 132.955 16.95C134.304 17.9278 135.046 19.2766 135.181 21.0299H131.64C131.539 20.2544 131.135 19.6137 130.46 19.108C129.752 18.6022 128.875 18.3324 127.83 18.3324C126.751 18.3324 125.908 18.5347 125.268 18.9394C124.593 19.344 124.29 19.9172 124.29 20.5916C124.29 21.1311 124.425 21.502 124.762 21.7717C125.099 22.0415 125.504 22.2101 126.009 22.3112C126.481 22.4124 127.291 22.5135 128.403 22.6484C129.887 22.817 131.135 23.053 132.146 23.3902C133.158 23.7274 133.967 24.2332 134.574 24.9413C135.181 25.6494 135.484 26.5935 135.484 27.8073C135.484 28.8863 135.147 29.8642 134.54 30.6734C133.9 31.4827 133.023 32.1233 131.944 32.5617C130.831 33 129.584 33.2023 128.235 33.2023C125.908 33.2023 124.02 32.6965 122.604 31.6513C121.188 30.606 120.446 29.1561 120.412 27.3016H123.919ZM139.66 27.3016C139.727 28.212 140.132 28.9538 140.907 29.527C141.683 30.1002 142.695 30.37 143.942 30.37C145.021 30.37 145.932 30.1676 146.606 29.763C147.28 29.3584 147.651 28.7852 147.651 28.0771C147.651 27.5039 147.483 27.0655 147.179 26.7621C146.842 26.4923 146.437 26.29 145.898 26.1551C145.358 26.0203 144.549 25.8854 143.47 25.7505C141.953 25.5819 140.705 25.3459 139.727 25.0424C138.749 24.739 137.974 24.2669 137.367 23.5925C136.76 22.9182 136.49 22.0415 136.49 20.895C136.49 19.8498 136.76 18.9057 137.367 18.0964C137.974 17.2872 138.783 16.6465 139.828 16.1744C140.874 15.7361 142.054 15.5001 143.403 15.5001C145.561 15.5001 147.348 16.0059 148.696 16.95C150.045 17.9278 150.787 19.2766 150.922 21.0299H147.381C147.28 20.2544 146.876 19.6137 146.201 19.108C145.493 18.6022 144.617 18.3324 143.571 18.3324C142.492 18.3324 141.649 18.5347 141.009 18.9394C140.334 19.344 140.031 19.9172 140.031 20.5916C140.031 21.1311 140.166 21.502 140.503 21.7717C140.84 22.0415 141.245 22.2101 141.75 22.3112C142.222 22.4124 143.032 22.5135 144.144 22.6484C145.628 22.817 146.876 23.053 147.887 23.3902C148.899 23.7274 149.708 24.2332 150.315 24.9413C150.922 25.6494 151.225 26.5935 151.225 27.8073C151.225 28.8863 150.888 29.8642 150.281 30.6734C149.641 31.4827 148.764 32.1233 147.685 32.5617C146.572 33 145.325 33.2023 143.976 33.2023C141.649 33.2023 139.761 32.6965 138.345 31.6513C136.929 30.606 136.187 29.1561 136.153 27.3016H139.66ZM152.903 29.2572C153.342 28.8526 153.915 28.6166 154.589 28.6166C155.264 28.6166 155.803 28.8526 156.275 29.2572C156.714 29.6956 156.95 30.2351 156.95 30.9095C156.95 31.5838 156.714 32.157 156.275 32.5617C155.803 33 155.264 33.2023 154.589 33.2023C153.915 33.2023 153.342 33 152.903 32.5617C152.465 32.157 152.263 31.5838 152.263 30.9095C152.263 30.2351 152.465 29.6956 152.903 29.2572Z" fill="#00916E"/>
<path d="M172.886 17.422C174.167 18.7033 174.842 20.7265 174.842 23.4914V33H171.2V23.6937C171.2 22.0752 170.829 20.8276 170.121 19.9509C169.413 19.108 168.402 18.6696 167.053 18.6696C165.603 18.6696 164.456 19.1754 163.647 20.187C162.838 21.1985 162.433 22.5473 162.433 24.2669V33H158.792V9.39702H162.433V18.2313C163.715 16.4442 165.535 15.5338 167.862 15.5338C169.919 15.5338 171.605 16.1744 172.886 17.422ZM177.209 19.7486C177.918 18.3999 178.895 17.3883 180.177 16.6465C181.458 15.9047 182.908 15.5338 184.56 15.5338C186.212 15.5338 187.662 15.871 188.943 16.5454C190.225 17.2197 191.203 18.1976 191.944 19.4114C192.686 20.659 193.057 22.1089 193.091 23.7611C193.091 24.2332 193.057 24.6715 192.99 25.1436H179.974V25.3459C180.042 26.8632 180.514 28.0434 181.391 28.9201C182.233 29.7967 183.38 30.2351 184.796 30.2351C185.909 30.2351 186.853 29.9991 187.628 29.4596C188.37 28.9201 188.876 28.1782 189.146 27.2004H192.787C192.45 28.9538 191.607 30.4037 190.225 31.5164C188.842 32.6628 187.123 33.2023 185.066 33.2023C183.245 33.2023 181.694 32.8651 180.345 32.1233C178.997 31.3815 177.985 30.37 177.243 29.0212C176.501 27.7062 176.164 26.1551 176.164 24.4018C176.164 22.6484 176.501 21.0974 177.209 19.7486ZM189.382 22.4798C189.213 21.2322 188.707 20.2544 187.864 19.5463C187.022 18.8382 185.976 18.4673 184.695 18.4673C183.481 18.4673 182.47 18.8382 181.593 19.58C180.716 20.3218 180.244 21.2659 180.109 22.4798H189.382ZM211.208 29.8305V33H209.286C208.14 33 207.331 32.764 206.859 32.2919C206.353 31.8199 206.117 31.1455 206.117 30.2351C204.802 32.2245 202.913 33.2023 200.418 33.2023C198.463 33.2023 196.912 32.764 195.765 31.8536C194.585 30.9769 194.012 29.7293 194.012 28.1445C194.012 26.3912 194.619 25.0087 195.9 24.0646C197.148 23.1205 198.968 22.6147 201.396 22.6147H205.746V21.5694C205.746 20.6253 205.409 19.8498 204.734 19.3103C204.06 18.7708 203.116 18.4673 201.936 18.4673C200.857 18.4673 199.98 18.7033 199.306 19.1754C198.631 19.6475 198.227 20.2544 198.092 20.9962H194.518C194.686 19.2766 195.462 17.9278 196.81 16.9837C198.159 16.0396 199.913 15.5338 202.104 15.5338C204.397 15.5338 206.184 16.0733 207.465 17.1523C208.713 18.2313 209.354 19.7823 209.354 21.8054V28.6166C209.354 29.4258 209.725 29.8305 210.5 29.8305H211.208ZM205.746 25.3122H201.228C200.081 25.3122 199.238 25.5482 198.631 25.9865C198.024 26.4249 197.721 27.0655 197.721 27.9085C197.721 28.6503 197.991 29.2572 198.564 29.6956C199.137 30.1676 199.913 30.37 200.924 30.37C202.408 30.37 203.588 29.9653 204.431 29.1561C205.274 28.3468 205.712 27.2678 205.746 25.9191V25.3122ZM211.843 9.39702H215.485V33H211.843V9.39702ZM217.706 10.9144H221.347V15.7361H225.528V18.9394H221.347V27.9422C221.347 28.6166 221.482 29.1224 221.752 29.3921C222.022 29.6619 222.46 29.7967 223.134 29.7967H225.899V33H222.393C220.74 33 219.56 32.6291 218.818 31.8536C218.077 31.1118 217.706 29.9316 217.706 28.3131V10.9144ZM240.626 17.422C241.907 18.7033 242.582 20.7265 242.582 23.4914V33H238.94V23.6937C238.94 22.0752 238.569 20.8276 237.861 19.9509C237.153 19.108 236.142 18.6696 234.793 18.6696C233.343 18.6696 232.196 19.1754 231.387 20.187C230.578 21.1985 230.173 22.5473 230.173 24.2669V33H226.532V9.39702H230.173V18.2313C231.455 16.4442 233.275 15.5338 235.602 15.5338C237.659 15.5338 239.345 16.1744 240.626 17.422Z" fill="black"/>
<defs>
<linearGradient id="paint0_linear_6341_62605" x1="36.0057" y1="3.23167" x2="-5.7018" y2="44.9391" gradientUnits="userSpaceOnUse">
<stop offset="0.1636" stop-color="#1DDDA6"/>
<stop offset="0.4432" stop-color="#00926E"/>
<stop offset="0.7454" stop-color="#0E7F5C"/>
</linearGradient>
</defs>
</svg>
